<svg xmlns="http://www.w3.org/2000/svg" xmlns:xlink="http://www.w3.org/1999/xlink" class="httpgd" width="720.00" height="576.00" viewBox="0 0 720.00 576.00">
<defs>
  <style type='text/css'><![CDATA[
    .httpgd line, .httpgd polyline, .httpgd polygon, .httpgd path, .httpgd rect, .httpgd circle {
      fill: none;
      stroke: #000000;
      stroke-linecap: round;
      stroke-linejoin: round;
      stroke-miterlimit: 10.00;
    }
  ]]></style>
<clipPath id="c0"><rect x="0.00" y="0.00" width="720.00" height="576.00"/></clipPath>
<clipPath id="c1"><rect x="36.20" y="23.34" width="678.32" height="481.73"/></clipPath>
<clipPath id="c2"><rect x="0.00" y="0.00" width="720.00" height="576.00"/></clipPath>
</defs>
<rect width="100%" height="100%" style="stroke: none;fill: #FFFFFF;"/>
<g clip-path="url(#c0)">
<rect x="0.00" y="0.00" width="720.00" height="576.00" style="stroke-width: 1.07;stroke: none;fill: #FFFFFF;"/>
</g><g clip-path="url(#c1)">
<polyline points="36.20,433.50 714.52,433.50" style="stroke-width: 0.53;stroke: #EBEBEB;stroke-linecap: butt;"/>
<polyline points="36.20,332.12 714.52,332.12" style="stroke-width: 0.53;stroke: #EBEBEB;stroke-linecap: butt;"/>
<polyline points="36.20,230.75 714.52,230.75" style="stroke-width: 0.53;stroke: #EBEBEB;stroke-linecap: butt;"/>
<polyline points="36.20,129.37 714.52,129.37" style="stroke-width: 0.53;stroke: #EBEBEB;stroke-linecap: butt;"/>
<polyline points="36.20,28.00 714.52,28.00" style="stroke-width: 0.53;stroke: #EBEBEB;stroke-linecap: butt;"/>
<polyline points="156.46,505.07 156.46,23.34" style="stroke-width: 0.53;stroke: #EBEBEB;stroke-linecap: butt;"/>
<polyline points="351.60,505.07 351.60,23.34" style="stroke-width: 0.53;stroke: #EBEBEB;stroke-linecap: butt;"/>
<polyline points="546.74,505.07 546.74,23.34" style="stroke-width: 0.53;stroke: #EBEBEB;stroke-linecap: butt;"/>
<polyline points="36.20,484.19 714.52,484.19" style="stroke-width: 1.07;stroke: #EBEBEB;stroke-linecap: butt;"/>
<polyline points="36.20,382.81 714.52,382.81" style="stroke-width: 1.07;stroke: #EBEBEB;stroke-linecap: butt;"/>
<polyline points="36.20,281.44 714.52,281.44" style="stroke-width: 1.07;stroke: #EBEBEB;stroke-linecap: butt;"/>
<polyline points="36.20,180.06 714.52,180.06" style="stroke-width: 1.07;stroke: #EBEBEB;stroke-linecap: butt;"/>
<polyline points="36.20,78.69 714.52,78.69" style="stroke-width: 1.07;stroke: #EBEBEB;stroke-linecap: butt;"/>
<polyline points="59.02,505.07 59.02,23.34" style="stroke-width: 1.07;stroke: #EBEBEB;stroke-linecap: butt;"/>
<polyline points="253.90,505.07 253.90,23.34" style="stroke-width: 1.07;stroke: #EBEBEB;stroke-linecap: butt;"/>
<polyline points="449.30,505.07 449.30,23.34" style="stroke-width: 1.07;stroke: #EBEBEB;stroke-linecap: butt;"/>
<polyline points="644.18,505.07 644.18,23.34" style="stroke-width: 1.07;stroke: #EBEBEB;stroke-linecap: butt;"/>
<polygon points="67.03,90.13 70.77,102.90 74.51,56.38 78.24,71.83 81.98,87.27 85.72,106.84 89.45,96.04 93.19,109.85 96.93,121.43 100.67,85.69 104.40,99.75 108.14,112.17 112.41,117.64 115.62,124.67 119.35,134.89 123.62,147.74 126.83,147.99 130.57,159.69 134.30,162.64 138.04,163.06 141.78,163.92 145.51,149.71 149.25,148.68 152.99,135.67 156.73,135.87 160.46,131.13 164.20,139.26 167.94,148.96 171.68,158.00 175.41,159.67 179.15,164.91 182.89,153.22 186.62,106.54 190.36,171.59 194.10,151.93 197.84,146.78 201.57,144.35 205.31,113.57 209.05,121.78 212.79,117.15 216.52,94.63 220.26,121.29 224.00,141.56 227.74,140.25 231.47,150.62 235.21,112.94 238.95,159.87 242.68,94.68 246.42,170.12 251.23,179.40 254.43,107.69 257.63,140.64 261.37,161.68 265.11,165.50 268.85,172.03 272.58,174.77 276.32,119.26 280.06,180.01 283.80,189.45 287.53,193.44 291.27,192.08 295.01,198.82 298.74,196.81 303.02,181.01 306.22,182.11 309.96,142.75 313.69,194.12 317.43,195.62 321.17,201.28 324.91,204.01 328.64,121.82 332.38,207.79 336.12,210.94 339.85,210.42 343.59,120.23 347.33,128.19 351.07,129.16 354.80,117.97 358.54,126.38 362.28,135.99 366.02,132.33 369.75,108.66 373.49,117.67 377.23,129.77 380.97,139.33 384.70,136.13 388.44,142.43 392.18,149.48 395.91,157.95 399.65,165.00 403.39,173.06 407.13,179.43 410.86,183.09 414.60,153.94 418.34,142.04 422.08,144.73 425.81,148.08 429.55,146.26 433.29,150.68 437.02,153.81 440.76,157.80 444.50,156.95 448.24,162.07 451.97,165.11 455.71,163.81 459.45,165.78 463.19,173.58 466.92,180.60 470.66,187.08 474.40,195.87 478.14,203.47 481.87,193.96 485.61,201.46 489.35,205.18 493.08,211.25 496.82,216.76 500.56,188.72 504.30,168.91 508.57,170.49 511.77,179.75 515.51,187.01 519.25,192.16 522.98,194.65 526.72,198.84 530.46,201.45 534.20,208.09 537.93,212.73 541.67,214.25 545.41,210.65 549.14,218.89 552.88,220.86 556.62,223.04 560.36,224.04 564.09,232.93 567.83,231.37 571.57,234.88 575.31,233.22 579.04,216.45 582.78,217.49 586.52,221.54 590.25,228.68 593.99,217.28 597.73,220.98 601.47,224.05 605.20,227.30 608.94,230.76 612.68,234.61 616.42,236.13 620.15,239.69 623.89,237.46 627.63,237.26 631.37,240.45 635.10,241.24 638.84,243.35 642.58,244.34 646.31,240.28 650.05,239.52 653.79,244.57 657.53,246.42 661.26,247.40 665.00,247.31 668.74,174.84 672.48,247.62 676.21,178.58 679.95,215.80 683.69,203.93 683.69,366.91 679.95,380.94 676.21,407.01 672.48,324.83 668.74,413.83 665.00,329.79 661.26,331.79 657.53,328.71 653.79,326.29 650.05,327.59 646.31,330.32 642.58,326.51 638.84,329.43 635.10,328.66 631.37,327.22 627.63,325.90 623.89,329.03 620.15,325.54 616.42,330.01 612.68,330.57 608.94,333.57 605.20,335.94 601.47,339.21 597.73,341.81 593.99,346.43 590.25,335.18 586.52,341.05 582.78,344.29 579.04,350.03 575.31,331.74 571.57,330.53 567.83,320.67 564.09,322.24 560.36,323.37 556.62,340.98 552.88,343.58 549.14,344.59 545.41,346.10 541.67,335.19 537.93,352.47 534.20,351.41 530.46,360.00 526.72,367.84 522.98,372.20 519.25,364.34 515.51,369.69 511.77,374.12 508.57,379.74 504.30,391.08 500.56,377.30 496.82,346.56 493.08,353.07 489.35,360.81 485.61,364.87 481.87,372.01 478.14,361.85 474.40,370.66 470.66,374.84 466.92,382.33 463.19,387.10 459.45,386.75 455.71,397.84 451.97,396.58 448.24,395.92 444.50,405.42 440.76,405.62 437.02,398.06 433.29,406.61 429.55,417.80 425.81,409.48 422.08,411.55 418.34,414.92 414.60,408.69 410.86,370.54 407.13,376.88 403.39,380.98 399.65,387.00 395.91,395.10 392.18,403.66 388.44,411.15 384.70,423.63 380.97,416.29 377.23,424.22 373.49,434.54 369.75,453.27 366.02,431.53 362.28,425.47 358.54,425.71 354.80,426.18 351.07,422.08 347.33,421.16 343.59,440.04 339.85,348.39 336.12,348.45 332.38,352.56 328.64,452.85 324.91,352.62 321.17,353.57 317.43,356.49 313.69,358.05 309.96,407.98 306.22,372.54 303.02,375.78 298.74,360.56 295.01,358.20 291.27,344.31 287.53,337.91 283.80,348.34 280.06,362.21 276.32,442.05 272.58,374.78 268.85,374.18 265.11,383.56 261.37,379.48 257.63,389.60 254.43,450.38 251.23,363.55 246.42,371.78 242.68,465.08 238.95,359.51 235.21,446.86 231.47,377.19 227.74,393.44 224.00,376.10 220.26,402.84 216.52,415.96 212.79,416.02 209.05,396.57 205.31,413.49 201.57,395.83 197.84,390.76 194.10,391.27 190.36,363.16 186.62,449.91 182.89,390.49 179.15,373.62 175.41,382.61 171.68,384.10 167.94,398.10 164.20,400.63 160.46,413.08 156.73,409.12 152.99,421.91 149.25,393.43 145.51,394.75 141.78,382.22 138.04,378.36 134.30,379.30 130.57,380.76 126.83,391.18 123.62,391.58 119.35,403.37 115.62,412.81 112.41,418.87 108.14,423.83 104.40,434.74 100.67,446.06 96.93,417.49 93.19,425.92 89.45,436.93 85.72,438.24 81.98,444.72 78.24,457.78 74.51,470.46 70.77,432.84 67.03,445.20" style="stroke-width: 0.00;stroke: none;stroke-linecap: butt;fill: #0000FF;fill-opacity: 0.30;" />
<polyline points="67.03,90.13 70.77,102.90 74.51,56.38 78.24,71.83 81.98,87.27 85.72,106.84 89.45,96.04 93.19,109.85 96.93,121.43 100.67,85.69 104.40,99.75 108.14,112.17 112.41,117.64 115.62,124.67 119.35,134.89 123.62,147.74 126.83,147.99 130.57,159.69 134.30,162.64 138.04,163.06 141.78,163.92 145.51,149.71 149.25,148.68 152.99,135.67 156.73,135.87 160.46,131.13 164.20,139.26 167.94,148.96 171.68,158.00 175.41,159.67 179.15,164.91 182.89,153.22 186.62,106.54 190.36,171.59 194.10,151.93 197.84,146.78 201.57,144.35 205.31,113.57 209.05,121.78 212.79,117.15 216.52,94.63 220.26,121.29 224.00,141.56 227.74,140.25 231.47,150.62 235.21,112.94 238.95,159.87 242.68,94.68 246.42,170.12 251.23,179.40 254.43,107.69 257.63,140.64 261.37,161.68 265.11,165.50 268.85,172.03 272.58,174.77 276.32,119.26 280.06,180.01 283.80,189.45 287.53,193.44 291.27,192.08 295.01,198.82 298.74,196.81 303.02,181.01 306.22,182.11 309.96,142.75 313.69,194.12 317.43,195.62 321.17,201.28 324.91,204.01 328.64,121.82 332.38,207.79 336.12,210.94 339.85,210.42 343.59,120.23 347.33,128.19 351.07,129.16 354.80,117.97 358.54,126.38 362.28,135.99 366.02,132.33 369.75,108.66 373.49,117.67 377.23,129.77 380.97,139.33 384.70,136.13 388.44,142.43 392.18,149.48 395.91,157.95 399.65,165.00 403.39,173.06 407.13,179.43 410.86,183.09 414.60,153.94 418.34,142.04 422.08,144.73 425.81,148.08 429.55,146.26 433.29,150.68 437.02,153.81 440.76,157.80 444.50,156.95 448.24,162.07 451.97,165.11 455.71,163.81 459.45,165.78 463.19,173.58 466.92,180.60 470.66,187.08 474.40,195.87 478.14,203.47 481.87,193.96 485.61,201.46 489.35,205.18 493.08,211.25 496.82,216.76 500.56,188.72 504.30,168.91 508.57,170.49 511.77,179.75 515.51,187.01 519.25,192.16 522.98,194.65 526.72,198.84 530.46,201.45 534.20,208.09 537.93,212.73 541.67,214.25 545.41,210.65 549.14,218.89 552.88,220.86 556.62,223.04 560.36,224.04 564.09,232.93 567.83,231.37 571.57,234.88 575.31,233.22 579.04,216.45 582.78,217.49 586.52,221.54 590.25,228.68 593.99,217.28 597.73,220.98 601.47,224.05 605.20,227.30 608.94,230.76 612.68,234.61 616.42,236.13 620.15,239.69 623.89,237.46 627.63,237.26 631.37,240.45 635.10,241.24 638.84,243.35 642.58,244.34 646.31,240.28 650.05,239.52 653.79,244.57 657.53,246.42 661.26,247.40 665.00,247.31 668.74,174.84 672.48,247.62 676.21,178.58 679.95,215.80 683.69,203.93" style="stroke-width: 1.07;stroke: none;stroke-linecap: butt;"/>
<polyline points="683.69,366.91 679.95,380.94 676.21,407.01 672.48,324.83 668.74,413.83 665.00,329.79 661.26,331.79 657.53,328.71 653.79,326.29 650.05,327.59 646.31,330.32 642.58,326.51 638.84,329.43 635.10,328.66 631.37,327.22 627.63,325.90 623.89,329.03 620.15,325.54 616.42,330.01 612.68,330.57 608.94,333.57 605.20,335.94 601.47,339.21 597.73,341.81 593.99,346.43 590.25,335.18 586.52,341.05 582.78,344.29 579.04,350.03 575.31,331.74 571.57,330.53 567.83,320.67 564.09,322.24 560.36,323.37 556.62,340.98 552.88,343.58 549.14,344.59 545.41,346.10 541.67,335.19 537.93,352.47 534.20,351.41 530.46,360.00 526.72,367.84 522.98,372.20 519.25,364.34 515.51,369.69 511.77,374.12 508.57,379.74 504.30,391.08 500.56,377.30 496.82,346.56 493.08,353.07 489.35,360.81 485.61,364.87 481.87,372.01 478.14,361.85 474.40,370.66 470.66,374.84 466.92,382.33 463.19,387.10 459.45,386.75 455.71,397.84 451.97,396.58 448.24,395.92 444.50,405.42 440.76,405.62 437.02,398.06 433.29,406.61 429.55,417.80 425.81,409.48 422.08,411.55 418.34,414.92 414.60,408.69 410.86,370.54 407.13,376.88 403.39,380.98 399.65,387.00 395.91,395.10 392.18,403.66 388.44,411.15 384.70,423.63 380.97,416.29 377.23,424.22 373.49,434.54 369.75,453.27 366.02,431.53 362.28,425.47 358.54,425.71 354.80,426.18 351.07,422.08 347.33,421.16 343.59,440.04 339.85,348.39 336.12,348.45 332.38,352.56 328.64,452.85 324.91,352.62 321.17,353.57 317.43,356.49 313.69,358.05 309.96,407.98 306.22,372.54 303.02,375.78 298.74,360.56 295.01,358.20 291.27,344.31 287.53,337.91 283.80,348.34 280.06,362.21 276.32,442.05 272.58,374.78 268.85,374.18 265.11,383.56 261.37,379.48 257.63,389.60 254.43,450.38 251.23,363.55 246.42,371.78 242.68,465.08 238.95,359.51 235.21,446.86 231.47,377.19 227.74,393.44 224.00,376.10 220.26,402.84 216.52,415.96 212.79,416.02 209.05,396.57 205.31,413.49 201.57,395.83 197.84,390.76 194.10,391.27 190.36,363.16 186.62,449.91 182.89,390.49 179.15,373.62 175.41,382.61 171.68,384.10 167.94,398.10 164.20,400.63 160.46,413.08 156.73,409.12 152.99,421.91 149.25,393.43 145.51,394.75 141.78,382.22 138.04,378.36 134.30,379.30 130.57,380.76 126.83,391.18 123.62,391.58 119.35,403.37 115.62,412.81 112.41,418.87 108.14,423.83 104.40,434.74 100.67,446.06 96.93,417.49 93.19,425.92 89.45,436.93 85.72,438.24 81.98,444.72 78.24,457.78 74.51,470.46 70.77,432.84 67.03,445.20" style="stroke-width: 1.07;stroke: none;stroke-linecap: butt;"/>
<polyline points="67.03,297.66 70.77,121.26 74.51,429.44 78.24,293.60 81.98,272.31 85.72,227.71 89.45,352.40 93.19,291.57 96.93,155.73 100.67,353.41 104.40,340.23 108.14,256.09 112.41,263.19 115.62,272.31 119.35,278.39 123.62,246.97 126.83,285.49 130.57,356.45 134.30,252.04 138.04,480.13 141.78,212.50 145.51,455.80 149.25,199.32 152.99,242.91 156.73,230.75 160.46,311.85 164.20,337.19 167.94,273.33 171.68,253.05 175.41,331.11 179.15,206.42 182.89,309.82 186.62,282.45 190.36,219.60 194.10,230.75 197.84,227.71 201.57,181.07 205.31,171.95 209.05,301.71 212.79,281.44 216.52,341.25 220.26,446.68 224.00,281.44 227.74,371.66 231.47,306.78 235.21,279.41 238.95,235.82 242.68,359.49 246.42,409.17 251.23,172.96 254.43,291.57 257.63,378.76 261.37,246.97 265.11,297.66 268.85,257.11 272.58,279.41 276.32,383.82 280.06,314.89 283.80,268.26 287.53,440.59 291.27,318.94 295.01,236.83 298.74,220.61 303.02,261.16 306.22,284.48 309.96,275.35 313.69,358.48 317.43,310.83 321.17,270.28 324.91,325.03 328.64,268.26 332.38,268.26 336.12,261.16 339.85,45.23 343.59,311.85 347.33,230.75 351.07,483.17 354.80,356.45 358.54,273.33 362.28,225.68 366.02,172.96 369.75,328.07 373.49,298.67 377.23,327.05 380.97,222.64 384.70,311.85 388.44,360.51 392.18,298.67 395.91,320.97 399.65,292.59 403.39,298.67 407.13,401.06 410.86,155.73 414.60,221.62 418.34,264.20 422.08,377.74 425.81,223.65 429.55,333.14 433.29,393.96 437.02,236.83 440.76,249.00 444.50,302.72 448.24,257.11 451.97,247.98 455.71,373.69 459.45,306.78 463.19,275.35 466.92,283.46 470.66,277.38 474.40,283.46 478.14,236.83 481.87,301.71 485.61,273.33 489.35,287.52 493.08,281.44 496.82,198.31 500.56,217.57 504.30,365.58 508.57,344.29 511.77,303.74 515.51,327.05 519.25,331.11 522.98,261.16 526.72,318.94 530.46,340.23 534.20,255.08 537.93,247.98 541.67,382.81 545.41,300.70 549.14,274.34 552.88,270.28 556.62,301.71 560.36,294.61 564.09,313.88 567.83,278.39 571.57,273.33 575.31,215.54 579.04,313.88 582.78,314.89 586.52,294.61 590.25,238.86 593.99,300.70 597.73,287.52 601.47,314.89 605.20,296.64 608.94,317.93 612.68,265.22 616.42,301.71 620.15,261.16 623.89,338.21 627.63,304.75 631.37,272.31 635.10,292.59 638.84,277.38 642.58,257.11 646.31,326.04 650.05,290.56 653.79,301.71 657.53,268.26 661.26,276.37 665.00,293.60 668.74,328.07 672.48,255.08 676.21,136.47 679.95,239.87 683.69,302.72" style="stroke-width: 1.71;stroke-linecap: butt;"/>
<polyline points="67.03,277.63 70.77,277.12 74.51,275.13 78.24,275.60 81.98,276.09 85.72,280.40 89.45,275.57 93.19,276.62 96.93,277.15 100.67,275.35 104.40,276.10 108.14,276.37 112.41,276.34 115.62,276.48 119.35,276.37 123.62,276.17 126.83,275.98 130.57,275.87 134.30,276.65 138.04,276.25 141.78,277.91 145.51,277.68 149.25,275.43 152.99,282.90 156.73,277.78 160.46,277.70 164.20,275.59 167.94,277.94 171.68,275.91 175.41,275.85 179.15,273.67 182.89,276.96 186.62,279.83 190.36,272.46 194.10,275.91 197.84,275.28 201.57,276.61 205.31,268.02 209.05,267.82 212.79,272.40 216.52,265.89 220.26,268.73 224.00,266.80 227.74,269.54 231.47,270.37 235.21,279.95 238.95,265.82 242.68,279.41 246.42,274.36 251.23,273.96 254.43,281.32 257.63,270.33 261.37,272.99 265.11,276.76 268.85,275.02 272.58,276.44 276.32,279.89 280.06,272.68 283.80,271.45 287.53,269.24 291.27,268.64 295.01,278.45 298.74,279.44 303.02,279.40 306.22,278.24 309.96,276.91 313.69,277.07 317.43,276.68 321.17,278.19 324.91,278.95 328.64,284.72 332.38,280.59 336.12,280.02 339.85,279.77 343.59,283.00 347.33,277.69 351.07,278.53 354.80,274.18 358.54,278.05 362.28,281.51 366.02,282.81 369.75,282.51 373.49,278.41 377.23,279.23 380.97,279.68 384.70,281.61 388.44,278.90 392.18,278.59 395.91,278.86 399.65,278.21 403.39,278.94 407.13,279.78 410.86,278.03 414.60,283.63 418.34,280.70 422.08,280.07 425.81,279.06 429.55,282.65 433.29,279.57 437.02,277.07 440.76,282.41 444.50,281.68 448.24,279.75 451.97,281.62 455.71,281.40 459.45,276.78 463.19,280.42 466.92,281.67 470.66,281.07 474.40,282.70 478.14,282.33 481.87,282.71 485.61,282.30 489.35,282.37 493.08,281.63 496.82,281.26 500.56,282.89 504.30,280.73 508.57,275.43 511.77,277.22 515.51,278.81 519.25,278.75 522.98,282.26 526.72,282.74 530.46,280.33 534.20,279.64 537.93,282.56 541.67,276.34 545.41,278.11 549.14,281.51 552.88,282.03 556.62,281.79 560.36,274.54 564.09,279.12 567.83,276.87 571.57,282.67 575.31,282.44 579.04,283.33 582.78,281.09 586.52,281.63 590.25,282.36 593.99,282.49 597.73,281.94 601.47,282.19 605.20,282.24 608.94,282.90 612.68,283.17 616.42,283.67 620.15,283.17 623.89,283.80 627.63,281.92 631.37,283.87 635.10,285.00 638.84,285.82 642.58,285.31 646.31,285.23 650.05,283.22 653.79,285.15 657.53,286.51 661.26,288.51 665.00,287.53 668.74,289.28 672.48,285.26 676.21,289.48 679.95,297.70 683.69,285.70" style="stroke-width: 1.71;stroke: #0000FF;stroke-linecap: butt;"/>
</g><g clip-path="url(#c2)">
<g><text x="31.27" y="487.34" text-anchor="end" style="font-family: Arial;font-size: 8.80px;fill: #4D4D4D;" textLength="12.72px" lengthAdjust="spacingAndGlyphs">-20</text></g>
<g><text x="31.27" y="385.96" text-anchor="end" style="font-family: Arial;font-size: 8.80px;fill: #4D4D4D;" textLength="12.72px" lengthAdjust="spacingAndGlyphs">-10</text></g>
<g><text x="31.27" y="284.59" text-anchor="end" style="font-family: Arial;font-size: 8.80px;fill: #4D4D4D;" textLength="4.90px" lengthAdjust="spacingAndGlyphs">0</text></g>
<g><text x="31.27" y="183.21" text-anchor="end" style="font-family: Arial;font-size: 8.80px;fill: #4D4D4D;" textLength="9.79px" lengthAdjust="spacingAndGlyphs">10</text></g>
<g><text x="31.27" y="81.84" text-anchor="end" style="font-family: Arial;font-size: 8.80px;fill: #4D4D4D;" textLength="9.79px" lengthAdjust="spacingAndGlyphs">20</text></g>
<g><text x="59.02" y="516.31" text-anchor="middle" style="font-family: Arial;font-size: 8.80px;fill: #4D4D4D;" textLength="19.58px" lengthAdjust="spacingAndGlyphs">2023</text></g>
<g><text x="253.90" y="516.31" text-anchor="middle" style="font-family: Arial;font-size: 8.80px;fill: #4D4D4D;" textLength="19.58px" lengthAdjust="spacingAndGlyphs">2024</text></g>
<g><text x="449.30" y="516.31" text-anchor="middle" style="font-family: Arial;font-size: 8.80px;fill: #4D4D4D;" textLength="19.58px" lengthAdjust="spacingAndGlyphs">2025</text></g>
<g><text x="644.18" y="516.31" text-anchor="middle" style="font-family: Arial;font-size: 8.80px;fill: #4D4D4D;" textLength="19.58px" lengthAdjust="spacingAndGlyphs">2026</text></g>
<g><text transform="translate(13.37,264.20) rotate(-90.00)" text-anchor="middle" style="font-family: Arial;font-size: 11.00px;" textLength="15.28px" lengthAdjust="spacingAndGlyphs">DS</text></g>
<line x1="247.33" y1="556.40" x2="261.15" y2="556.40" style="stroke-width: 1.71;stroke-linecap: butt;"/>
<line x1="300.02" y1="556.40" x2="313.84" y2="556.40" style="stroke-width: 1.71;stroke: #0000FF;stroke-linecap: butt;"/>
<g><text x="268.36" y="559.55" style="font-family: Arial;font-size: 8.80px;" textLength="24.45px" lengthAdjust="spacingAndGlyphs">Actual</text></g>
<g><text x="321.05" y="559.55" style="font-family: Arial;font-size: 8.80px;" textLength="44.02px" lengthAdjust="spacingAndGlyphs">Forecasted</text></g>
<rect x="387.70" y="548.47" width="15.86" height="15.86" style="stroke-width: 1.07;stroke: none;stroke-linecap: butt;fill: #0000FF;fill-opacity: 0.30;"/>
<g><text x="409.75" y="559.55" style="font-family: Arial;font-size: 8.80px;" textLength="95.37px" lengthAdjust="spacingAndGlyphs">90% Confidence interval</text></g>
<g><text x="36.20" y="14.94" style="font-family: Arial;font-size: 13.20px;" textLength="148.82px" lengthAdjust="spacingAndGlyphs">DS: Actual vs Forecasted</text></g>
</g>
</svg>