<svg xmlns="http://www.w3.org/2000/svg" xmlns:xlink="http://www.w3.org/1999/xlink" class="httpgd" width="720.00" height="576.00" viewBox="0 0 720.00 576.00">
<defs>
  <style type='text/css'><![CDATA[
    .httpgd line, .httpgd polyline, .httpgd polygon, .httpgd path, .httpgd rect, .httpgd circle {
      fill: none;
      stroke: #000000;
      stroke-linecap: round;
      stroke-linejoin: round;
      stroke-miterlimit: 10.00;
    }
  ]]></style>
<clipPath id="c0"><rect x="0.00" y="0.00" width="720.00" height="576.00"/></clipPath>
<clipPath id="c1"><rect x="38.02" y="28.51" width="662.98" height="86.98"/></clipPath>
<clipPath id="c2"><rect x="0.00" y="0.00" width="720.00" height="576.00"/></clipPath>
<clipPath id="c3"><rect x="0.00" y="0.00" width="720.00" height="144.00"/></clipPath>
<clipPath id="c4"><rect x="38.02" y="28.51" width="662.98" height="86.98"/></clipPath>
<clipPath id="c5"><rect x="38.02" y="172.51" width="662.98" height="86.98"/></clipPath>
<clipPath id="c6"><rect x="0.00" y="0.00" width="720.00" height="576.00"/></clipPath>
<clipPath id="c7"><rect x="0.00" y="144.00" width="720.00" height="144.00"/></clipPath>
<clipPath id="c8"><rect x="38.02" y="172.51" width="662.98" height="86.98"/></clipPath>
<clipPath id="c9"><rect x="0.00" y="144.00" width="720.00" height="144.00"/></clipPath>
<clipPath id="c10"><rect x="38.02" y="316.51" width="662.98" height="86.98"/></clipPath>
<clipPath id="c11"><rect x="0.00" y="0.00" width="720.00" height="576.00"/></clipPath>
<clipPath id="c12"><rect x="0.00" y="288.00" width="720.00" height="144.00"/></clipPath>
<clipPath id="c13"><rect x="38.02" y="316.51" width="662.98" height="86.98"/></clipPath>
<clipPath id="c14"><rect x="0.00" y="288.00" width="720.00" height="144.00"/></clipPath>
<clipPath id="c15"><rect x="0.00" y="0.00" width="720.00" height="576.00"/></clipPath>
<clipPath id="c16"><rect x="38.02" y="460.51" width="662.98" height="86.98"/></clipPath>
<clipPath id="c17"><rect x="0.00" y="0.00" width="720.00" height="576.00"/></clipPath>
<clipPath id="c18"><rect x="0.00" y="432.00" width="720.00" height="144.00"/></clipPath>
<clipPath id="c19"><rect x="38.02" y="460.51" width="662.98" height="86.98"/></clipPath>
<clipPath id="c20"><rect x="0.00" y="432.00" width="720.00" height="144.00"/></clipPath>
</defs>
<rect width="100%" height="100%" style="stroke: none;fill: #FFFFFF;"/>
<g clip-path="url(#c0)">
</g><g clip-path="url(#c1)">
<polyline points="62.57,60.99 63.31,62.36 64.05,63.78 64.79,42.57 65.53,87.38 66.26,55.76 67.11,58.72 67.74,56.84 68.48,75.47 69.22,74.96 69.96,55.89 70.70,67.93 71.44,68.10 72.17,63.48 72.91,71.61 73.65,68.10 74.39,66.95 75.13,56.45 75.87,64.16 76.61,63.43 77.34,73.58 78.08,65.75 78.82,63.48 79.56,62.32 80.30,66.09 81.04,70.07 81.78,69.94 82.52,67.03 83.25,64.46 84.10,59.75 84.73,62.28 85.47,70.33 86.21,57.86 86.95,73.54 87.69,64.25 88.43,65.70 89.16,61.76 89.90,53.02 90.64,69.94 91.38,78.17 92.12,71.83 92.86,62.28 93.60,77.10 94.34,60.52 95.07,63.73 95.81,59.36 96.55,66.90 97.29,63.35 98.03,72.51 98.77,66.56 99.51,68.36 100.24,73.29 100.98,62.06 101.72,60.61 102.57,65.79 103.20,66.43 103.94,64.03 104.68,62.32 105.42,64.03 106.15,74.48 106.89,54.74 107.74,64.33 108.37,54.31 109.11,79.24 109.85,40.90 110.59,37.30 111.33,88.62 112.06,31.73 112.80,49.00 113.54,112.27 114.39,60.13 115.02,60.99 115.76,51.57 116.50,52.34 117.24,65.49 117.97,53.71 118.71,77.35 119.45,71.74 120.19,63.22 120.93,56.75 121.67,66.47 122.41,34.99 123.14,58.29 123.88,64.63 124.62,49.04 125.36,87.12 126.10,80.05 126.84,31.82 127.58,69.34 128.42,58.04 129.05,62.49 129.79,83.52 130.53,89.91 131.27,79.11 132.01,78.25 132.75,69.47 133.49,67.07 134.23,68.83 134.96,87.68 135.70,68.32 136.44,76.20 137.18,49.98 137.92,59.92 138.66,49.98 139.40,67.07 140.14,51.52 140.87,68.92 141.61,69.43 142.35,54.27 143.09,51.31 143.83,69.60 144.57,54.57 145.31,76.80 146.04,63.05 146.78,80.05 147.52,64.25 148.26,45.27 149.00,64.38 149.74,55.51 150.48,84.85 151.22,60.91 151.95,72.34 152.69,75.56 153.43,62.02 154.17,61.42 154.91,105.33 155.65,76.84 156.39,60.39 157.13,58.21 157.86,72.30 158.60,66.95 159.34,80.61 160.08,57.18 160.82,60.95 161.56,59.58 162.30,70.03 163.04,76.11 163.77,74.06 164.51,60.82 165.25,67.50 165.99,72.17 166.73,60.78 167.47,86.35 168.21,75.04 168.94,61.46 169.68,69.52 170.42,61.93 171.16,53.07 171.90,76.37 172.64,58.72 173.38,45.27 174.12,79.15 174.85,62.28 175.59,66.22 176.33,52.64 177.18,78.77 177.81,70.07 178.55,70.84 179.29,70.63 180.03,78.64 180.76,68.10 181.50,63.26 182.35,57.91 182.98,70.63 183.72,65.02 184.46,61.21 185.20,64.03 185.93,67.89 186.67,70.67 187.41,56.54 188.15,67.93 188.89,72.51 189.63,71.10 190.37,71.19 191.11,73.97 191.84,62.66 192.58,60.39 193.32,64.89 194.06,62.83 194.80,76.93 195.54,52.98 196.28,75.00 197.02,68.14 197.75,70.03 198.49,61.12 199.23,66.35 199.97,68.74 200.71,66.17 201.45,68.19 202.19,65.45 202.93,65.83 203.66,70.33 204.40,66.56 205.14,65.32 205.88,77.61 206.62,63.35 207.36,66.35 208.10,58.38 208.83,67.12 209.57,73.93 210.31,67.46 211.05,68.66 211.79,69.86 212.53,69.69 213.27,61.38 214.01,70.37 214.74,67.25 215.48,71.49 216.22,62.75 216.96,70.03 217.80,65.06 218.44,67.84 219.18,70.03 219.92,55.81 220.65,64.03 221.39,71.79 222.13,74.44 222.98,68.19 223.61,62.28 224.35,67.80 225.09,66.69 225.83,55.51 226.56,68.14 227.30,69.22 228.04,65.06 228.78,57.95 229.52,71.53 230.26,68.87 231.00,68.10 231.73,75.30 232.47,61.80 233.21,68.49 233.95,64.55 234.69,66.77 235.43,64.63 236.17,57.69 236.91,66.00 237.64,70.24 238.38,65.15 239.12,66.05 239.86,71.66 240.60,69.64 241.34,73.71 242.08,54.35 242.82,69.82 243.55,66.17 244.29,69.86 245.03,59.96 245.77,72.47 246.51,68.06 247.25,62.06 247.99,70.29 248.73,62.83 249.46,69.47 250.20,74.66 250.94,69.94 251.68,66.56 252.42,60.78 253.16,61.12 253.90,68.87 254.74,66.77 255.37,52.89 256.11,69.86 256.85,72.09 257.59,66.56 258.33,65.10 259.07,62.19 259.81,61.03 260.54,64.72 261.28,64.89 262.02,60.82 262.76,79.50 263.50,54.82 264.24,75.21 264.98,69.34 265.72,65.23 266.45,68.10 267.19,66.13 267.93,66.99 268.67,60.91 269.41,69.47 270.15,65.15 270.89,67.80 271.63,69.64 272.36,64.20 273.10,66.35 273.84,68.36 274.58,67.03 275.32,69.17 276.06,67.16 276.80,65.23 277.53,64.89 278.27,65.96 279.01,69.17 279.75,65.23 280.49,64.59 281.23,65.32 281.97,65.40 282.71,68.79 283.44,64.12 284.18,63.35 284.92,62.58 285.66,66.30 286.40,61.93 287.14,59.62 287.88,67.03 288.62,67.50 289.35,71.19 290.09,73.07 290.83,66.60 291.57,63.30 292.41,68.19 293.05,59.79 293.79,66.17 294.53,64.97 295.26,67.20 296.00,61.03 296.74,65.06 297.48,67.93 298.22,70.20 298.96,64.16 299.70,64.85 300.43,60.35 301.17,60.35 301.91,78.47 302.65,64.89 303.39,68.27 304.13,62.79 304.87,65.36 305.61,69.34 306.34,68.10 307.08,67.93 307.82,65.36 308.56,65.27 309.30,64.72 310.04,62.36 310.78,67.76 311.52,65.02 312.25,64.46 312.99,67.54 313.73,64.42 314.47,63.69 315.21,60.61 315.95,61.21 316.69,62.96 317.43,60.82 318.16,75.51 318.90,63.65 319.64,71.14 320.38,65.23 321.22,64.33 321.86,64.63 322.60,67.67 323.33,64.50 324.07,61.25 324.81,63.43 325.55,62.32 326.29,68.79 327.03,60.91 327.77,75.73 328.51,61.76 329.24,63.48 329.98,63.09 330.72,66.99 331.46,65.62 332.20,61.50 333.04,68.83 333.68,69.73 334.52,74.36 335.15,61.72 335.89,70.07 336.63,65.87 337.37,57.05 338.11,72.60 338.85,71.44 339.59,68.02 340.33,64.59 341.06,62.96 341.80,66.09 342.54,73.97 343.28,66.30 344.02,67.72 344.76,61.50 345.50,67.16 346.23,61.72 346.97,67.20 347.71,68.27 348.45,66.30 349.19,65.57 349.93,63.60 350.67,64.20 351.41,70.50 352.14,68.32 352.88,68.02 353.62,71.53 354.36,65.62 355.10,64.80 355.84,66.39 356.58,69.09 357.32,68.40 358.05,58.42 358.79,66.00 359.74,63.86 360.38,66.56 361.01,70.07 361.75,66.22 362.49,67.50 363.22,70.84 363.96,64.76 364.70,68.96 365.44,60.69 366.18,66.52 366.92,68.36 367.66,63.82 368.40,68.02 369.13,68.57 369.98,66.30 370.61,66.17 371.35,70.37 372.09,66.86 372.83,63.05 373.57,62.40 374.31,52.64 375.04,48.31 375.78,54.78 376.52,50.20 377.26,86.82 378.00,59.41 378.74,65.66 379.48,63.52 380.22,72.30 380.95,66.47 381.69,64.08 382.43,56.15 383.17,62.58 383.91,57.48 384.65,67.89 385.39,62.10 386.12,83.05 386.86,64.63 387.60,73.20 388.34,52.81 389.08,58.46 389.82,57.39 390.56,63.78 391.30,65.87 392.03,75.51 392.77,61.98 393.51,60.39 394.25,67.80 394.99,74.01 395.73,66.43 396.47,74.48 397.21,71.19 397.94,69.26 398.68,58.16 399.42,66.30 400.16,72.90 400.90,66.90 401.64,60.26 402.38,54.44 403.12,74.83 403.85,63.56 404.59,75.13 405.33,70.54 406.07,67.16 406.81,63.56 407.55,62.96 408.29,69.43 409.02,72.43 409.76,56.36 410.61,63.48 411.24,69.73 411.98,57.56 412.72,64.55 413.46,70.42 414.20,58.63 414.93,75.60 415.67,68.10 416.41,71.57 417.15,67.76 417.89,79.37 418.63,71.06 419.37,66.05 420.11,65.75 420.84,62.45 421.58,52.64 422.32,78.73 423.06,70.80 423.80,75.51 424.54,77.05 425.28,73.71 426.02,61.55 426.75,67.20 427.49,65.92 428.23,67.46 428.97,69.34 429.71,65.23 430.45,63.95 431.19,63.13 431.92,60.52 432.66,67.16 433.40,64.33 434.14,64.20 434.88,73.67 435.62,61.16 436.36,67.72 437.10,66.47 437.83,64.50 438.57,63.05 439.31,67.89 440.05,74.31 440.79,67.54 441.53,66.69 442.27,66.35 443.01,50.15 443.74,62.62 444.48,39.66 445.22,86.61 445.96,71.10 446.70,59.53 447.44,67.07 448.28,51.48 448.92,63.09 449.65,65.87 450.39,67.29 451.13,64.12 451.87,78.81 452.61,71.83 453.35,77.31 454.09,58.68 454.82,69.77 455.56,64.72 456.30,68.96 457.04,66.17 457.78,68.96 458.52,75.81 459.26,61.85 460.00,71.06 460.73,66.65 461.47,64.59 462.21,66.35 462.95,63.69 463.69,67.63 464.43,68.96 465.17,67.54 465.91,69.99 466.64,68.92 467.38,65.32 468.12,61.16 468.86,66.13 469.60,70.20 470.34,69.09 471.08,65.66 471.82,67.63 472.55,66.56 473.29,65.15 474.03,68.19 474.77,64.67 475.51,65.19 476.25,69.47 476.99,61.68 477.72,61.93 478.46,71.53 479.20,73.58 479.94,69.13 480.68,65.15 481.42,62.06 482.16,64.80 482.90,71.23 483.63,64.97 484.37,66.30 485.11,66.26 485.96,62.66 486.59,66.77 487.33,64.97 488.07,64.97 488.81,63.09 489.54,65.19 490.28,67.89 491.02,68.87 491.76,67.07 492.50,68.74 493.24,61.76 493.98,66.05 494.72,68.62 495.45,64.16 496.19,66.47 496.93,66.35 497.67,64.42 498.41,68.49 499.15,66.47 499.89,65.10 500.62,64.89 501.36,66.00 502.10,67.29 502.84,67.67 503.58,65.79 504.32,64.89 505.06,66.09 505.80,65.62 506.53,65.66 507.27,57.86 508.01,72.04 508.75,61.38 509.49,66.73 510.23,61.98 510.97,65.62 511.71,66.05 512.44,66.99 513.18,62.75 513.92,66.77 514.66,64.25 515.40,67.97 516.14,66.13 516.88,66.60 517.62,57.39 518.35,60.86 519.09,66.69 519.83,67.03 520.57,65.83 521.31,67.50 522.05,69.77 522.79,66.35 523.52,64.33 524.26,61.29 525.00,66.52 525.85,63.90 526.48,60.48 527.22,58.85 527.96,70.42 528.70,60.18 529.43,69.90 530.17,58.16 530.91,60.31 531.65,81.25 532.39,62.75 533.13,71.36 533.87,61.46 534.61,57.14 535.34,59.15 536.08,67.84 536.82,78.13 537.56,64.33 538.30,62.10 539.04,63.56 539.78,61.08 540.51,66.90 541.25,67.59 541.99,66.05 542.73,59.58 543.47,63.43 544.21,68.36 544.95,70.67 545.69,77.91 546.42,61.46 547.16,71.61 547.90,73.54 548.64,65.32 549.38,65.10 550.12,67.29 550.86,55.76 551.60,66.13 552.44,65.70 553.07,72.30 553.81,71.74 554.55,66.77 555.29,59.32 556.03,72.34 556.77,66.60 557.51,65.70 558.24,63.82 558.98,69.09 559.72,66.52 560.46,60.78 561.20,69.13 561.94,68.57 562.68,65.02 563.52,65.32 564.15,65.70 564.89,65.96 565.74,64.63 566.37,66.26 567.11,69.26 567.85,64.85 568.59,74.48 569.32,63.18 570.06,73.46 570.80,62.62 571.54,64.46 572.28,63.95 573.02,67.37 573.76,68.44 574.50,65.75 575.23,64.89 575.97,68.19 576.71,62.92 577.45,67.29 578.19,66.13 578.93,63.48 579.67,63.95 580.41,63.82 581.14,61.85 581.88,61.46 582.62,66.95 583.36,66.09 584.10,68.62 584.84,73.07 585.58,66.09 586.31,69.90 587.05,67.16 587.79,66.00 588.53,64.16 589.27,69.39 590.01,71.49 590.96,61.50 591.59,66.52 592.22,70.20 592.96,64.63 593.70,66.77 594.44,65.06 595.18,66.00 595.92,70.42 596.66,67.50 597.40,65.53 598.13,72.81 598.87,67.67 599.61,64.20 600.35,63.52 601.19,65.23 601.83,66.22 602.57,65.83 603.31,69.34 604.04,67.33 604.78,65.62 605.52,67.93 606.26,65.53 607.00,65.53 607.74,65.23 608.48,56.11 609.21,67.37 609.95,63.95 610.69,74.61 611.43,69.26 612.17,65.75 612.91,63.73 613.65,61.50 614.39,68.06 615.12,66.82 615.86,68.02 616.60,63.60 617.34,67.37 618.08,69.43 618.82,66.82 619.56,67.76 620.30,66.56 621.03,66.82 621.77,71.14 622.51,60.78 623.25,63.56 623.99,65.36 624.73,70.16 625.47,63.65 626.21,68.27 626.94,70.84 627.68,64.20 628.42,64.72 629.16,66.99 629.90,65.06 630.64,64.67 631.38,69.99 632.11,67.16 632.85,65.83 633.59,66.17 634.33,65.92 635.07,66.17 635.81,64.20 636.55,66.95 637.29,65.75 638.02,66.35 638.76,66.09 639.50,62.58 640.24,63.39 640.98,69.64 641.82,68.74 642.46,67.03 643.20,68.02 643.93,68.19 644.67,65.23 645.41,67.67 646.15,68.57 646.89,64.97 647.63,64.67 648.37,70.37 649.11,66.90 649.84,65.79 650.58,65.62 651.32,66.95 652.06,66.65 652.80,67.46 653.54,65.96 654.28,65.75 655.01,63.30 655.75,67.46 656.49,67.50 657.23,66.65 657.97,64.29 658.71,66.90 659.45,66.35 660.19,67.50 660.92,66.73 661.66,67.63 662.40,65.40 663.14,66.95 663.88,65.23 664.62,68.49 665.36,67.07 666.10,65.70 666.83,66.56 667.57,65.92 668.31,65.06 669.05,67.97 669.79,66.47 670.53,66.95 671.27,65.53 672.01,65.87 672.74,66.60 673.48,68.06 674.22,64.97 674.96,59.96 675.70,64.33 676.44,66.99" style="stroke-width: 0.52;"/>
</g><g clip-path="url(#c2)">
<line x1="51.91" y1="115.49" x2="630.11" y2="115.49" style="stroke-width: 0.75;"/>
<line x1="51.91" y1="115.49" x2="51.91" y2="120.24" style="stroke-width: 0.75;"/>
<line x1="244.61" y1="115.49" x2="244.61" y2="120.24" style="stroke-width: 0.75;"/>
<line x1="437.31" y1="115.49" x2="437.31" y2="120.24" style="stroke-width: 0.75;"/>
<line x1="630.11" y1="115.49" x2="630.11" y2="120.24" style="stroke-width: 0.75;"/>
<g><text x="51.91" y="132.60" text-anchor="middle" style="font-family: Arial;font-size: 7.92px;" textLength="17.60px" lengthAdjust="spacingAndGlyphs">2010</text></g>
<g><text x="244.61" y="132.60" text-anchor="middle" style="font-family: Arial;font-size: 7.92px;" textLength="17.60px" lengthAdjust="spacingAndGlyphs">2015</text></g>
<g><text x="437.31" y="132.60" text-anchor="middle" style="font-family: Arial;font-size: 7.92px;" textLength="17.60px" lengthAdjust="spacingAndGlyphs">2020</text></g>
<g><text x="630.11" y="132.60" text-anchor="middle" style="font-family: Arial;font-size: 7.92px;" textLength="17.60px" lengthAdjust="spacingAndGlyphs">2025</text></g>
<line x1="38.02" y1="108.93" x2="38.02" y2="44.67" style="stroke-width: 0.75;"/>
<line x1="38.02" y1="108.93" x2="33.26" y2="108.93" style="stroke-width: 0.75;"/>
<line x1="38.02" y1="87.51" x2="33.26" y2="87.51" style="stroke-width: 0.75;"/>
<line x1="38.02" y1="66.09" x2="33.26" y2="66.09" style="stroke-width: 0.75;"/>
<line x1="38.02" y1="44.67" x2="33.26" y2="44.67" style="stroke-width: 0.75;"/>
<g><text transform="translate(26.61,108.93) rotate(-90.00)" text-anchor="middle" style="font-family: Arial;font-size: 7.92px;" textLength="15.83px" lengthAdjust="spacingAndGlyphs">-100</text></g>
<g><text transform="translate(26.61,87.51) rotate(-90.00)" text-anchor="middle" style="font-family: Arial;font-size: 7.92px;" textLength="11.43px" lengthAdjust="spacingAndGlyphs">-50</text></g>
<g><text transform="translate(26.61,66.09) rotate(-90.00)" text-anchor="middle" style="font-family: Arial;font-size: 7.92px;" textLength="4.40px" lengthAdjust="spacingAndGlyphs">0</text></g>
<g><text transform="translate(26.61,44.67) rotate(-90.00)" text-anchor="middle" style="font-family: Arial;font-size: 7.92px;" textLength="8.80px" lengthAdjust="spacingAndGlyphs">50</text></g>
<polygon points="38.02,115.49 700.99,115.49 700.99,28.51 38.02,28.51" style="stroke-width: 0.75;" />
</g><g clip-path="url(#c3)">
<g><text x="369.50" y="17.67" text-anchor="middle" style="font-family: Arial;font-size: 9.50px;font-weight: bold;" textLength="106.09px" lengthAdjust="spacingAndGlyphs">Differenced spread (ds)</text></g>
<g><text transform="translate(7.60,72.00) rotate(-90.00)" text-anchor="middle" style="font-family: Arial;font-size: 7.92px;" textLength="8.35px" lengthAdjust="spacingAndGlyphs">ds</text></g>
</g><g clip-path="url(#c4)">
<line x1="38.02" y1="66.09" x2="700.99" y2="66.09" style="stroke-width: 0.38;"/>
</g><g clip-path="url(#c5)">
<line x1="62.57" y1="214.67" x2="62.57" y2="249.22" style="stroke-width: 0.75;"/>
<line x1="83.74" y1="214.67" x2="83.74" y2="219.45" style="stroke-width: 0.75;"/>
<line x1="104.91" y1="214.67" x2="104.91" y2="197.89" style="stroke-width: 0.75;"/>
<line x1="126.07" y1="214.67" x2="126.07" y2="256.27" style="stroke-width: 0.75;"/>
<line x1="147.24" y1="214.67" x2="147.24" y2="234.57" style="stroke-width: 0.75;"/>
<line x1="168.41" y1="214.67" x2="168.41" y2="175.73" style="stroke-width: 0.75;"/>
<line x1="189.58" y1="214.67" x2="189.58" y2="195.87" style="stroke-width: 0.75;"/>
<line x1="210.75" y1="214.67" x2="210.75" y2="186.46" style="stroke-width: 0.75;"/>
<line x1="231.91" y1="214.67" x2="231.91" y2="241.79" style="stroke-width: 0.75;"/>
<line x1="253.08" y1="214.67" x2="253.08" y2="238.39" style="stroke-width: 0.75;"/>
<line x1="274.25" y1="214.67" x2="274.25" y2="218.82" style="stroke-width: 0.75;"/>
<line x1="295.42" y1="214.67" x2="295.42" y2="211.33" style="stroke-width: 0.75;"/>
<line x1="316.58" y1="214.67" x2="316.58" y2="236.33" style="stroke-width: 0.75;"/>
<line x1="337.75" y1="214.67" x2="337.75" y2="207.49" style="stroke-width: 0.75;"/>
<line x1="358.92" y1="214.67" x2="358.92" y2="196.45" style="stroke-width: 0.75;"/>
<line x1="380.09" y1="214.67" x2="380.09" y2="214.12" style="stroke-width: 0.75;"/>
<line x1="401.26" y1="214.67" x2="401.26" y2="191.16" style="stroke-width: 0.75;"/>
<line x1="422.42" y1="214.67" x2="422.42" y2="253.39" style="stroke-width: 0.75;"/>
<line x1="443.59" y1="214.67" x2="443.59" y2="215.08" style="stroke-width: 0.75;"/>
<line x1="464.76" y1="214.67" x2="464.76" y2="209.73" style="stroke-width: 0.75;"/>
<line x1="485.93" y1="214.67" x2="485.93" y2="237.26" style="stroke-width: 0.75;"/>
<line x1="507.09" y1="214.67" x2="507.09" y2="178.69" style="stroke-width: 0.75;"/>
<line x1="528.26" y1="214.67" x2="528.26" y2="200.24" style="stroke-width: 0.75;"/>
<line x1="549.43" y1="214.67" x2="549.43" y2="230.97" style="stroke-width: 0.75;"/>
<line x1="570.60" y1="214.67" x2="570.60" y2="245.08" style="stroke-width: 0.75;"/>
<line x1="591.77" y1="214.67" x2="591.77" y2="225.97" style="stroke-width: 0.75;"/>
<line x1="612.93" y1="214.67" x2="612.93" y2="204.43" style="stroke-width: 0.75;"/>
<line x1="634.10" y1="214.67" x2="634.10" y2="219.36" style="stroke-width: 0.75;"/>
<line x1="655.27" y1="214.67" x2="655.27" y2="200.87" style="stroke-width: 0.75;"/>
<line x1="676.44" y1="214.67" x2="676.44" y2="206.69" style="stroke-width: 0.75;"/>
</g><g clip-path="url(#c6)">
<line x1="41.40" y1="259.49" x2="676.44" y2="259.49" style="stroke-width: 0.75;"/>
<line x1="41.40" y1="259.49" x2="41.40" y2="264.24" style="stroke-width: 0.75;"/>
<line x1="147.24" y1="259.49" x2="147.24" y2="264.24" style="stroke-width: 0.75;"/>
<line x1="253.08" y1="259.49" x2="253.08" y2="264.24" style="stroke-width: 0.75;"/>
<line x1="358.92" y1="259.49" x2="358.92" y2="264.24" style="stroke-width: 0.75;"/>
<line x1="464.76" y1="259.49" x2="464.76" y2="264.24" style="stroke-width: 0.75;"/>
<line x1="570.60" y1="259.49" x2="570.60" y2="264.24" style="stroke-width: 0.75;"/>
<line x1="676.44" y1="259.49" x2="676.44" y2="264.24" style="stroke-width: 0.75;"/>
<g><text x="41.40" y="276.60" text-anchor="middle" style="font-family: Arial;font-size: 7.92px;" textLength="4.40px" lengthAdjust="spacingAndGlyphs">0</text></g>
<g><text x="147.24" y="276.60" text-anchor="middle" style="font-family: Arial;font-size: 7.92px;" textLength="4.40px" lengthAdjust="spacingAndGlyphs">5</text></g>
<g><text x="253.08" y="276.60" text-anchor="middle" style="font-family: Arial;font-size: 7.92px;" textLength="8.80px" lengthAdjust="spacingAndGlyphs">10</text></g>
<g><text x="358.92" y="276.60" text-anchor="middle" style="font-family: Arial;font-size: 7.92px;" textLength="8.80px" lengthAdjust="spacingAndGlyphs">15</text></g>
<g><text x="464.76" y="276.60" text-anchor="middle" style="font-family: Arial;font-size: 7.92px;" textLength="8.80px" lengthAdjust="spacingAndGlyphs">20</text></g>
<g><text x="570.60" y="276.60" text-anchor="middle" style="font-family: Arial;font-size: 7.92px;" textLength="8.80px" lengthAdjust="spacingAndGlyphs">25</text></g>
<g><text x="676.44" y="276.60" text-anchor="middle" style="font-family: Arial;font-size: 7.92px;" textLength="8.80px" lengthAdjust="spacingAndGlyphs">30</text></g>
<line x1="38.02" y1="255.83" x2="38.02" y2="173.51" style="stroke-width: 0.75;"/>
<line x1="38.02" y1="255.83" x2="33.26" y2="255.83" style="stroke-width: 0.75;"/>
<line x1="38.02" y1="235.25" x2="33.26" y2="235.25" style="stroke-width: 0.75;"/>
<line x1="38.02" y1="214.67" x2="33.26" y2="214.67" style="stroke-width: 0.75;"/>
<line x1="38.02" y1="194.09" x2="33.26" y2="194.09" style="stroke-width: 0.75;"/>
<line x1="38.02" y1="173.51" x2="33.26" y2="173.51" style="stroke-width: 0.75;"/>
<g><text transform="translate(26.61,255.83) rotate(-90.00)" text-anchor="middle" style="font-family: Arial;font-size: 7.92px;" textLength="18.03px" lengthAdjust="spacingAndGlyphs">-0.10</text></g>
<g><text transform="translate(26.61,214.67) rotate(-90.00)" text-anchor="middle" style="font-family: Arial;font-size: 7.92px;" textLength="15.39px" lengthAdjust="spacingAndGlyphs">0.00</text></g>
<g><text transform="translate(26.61,173.51) rotate(-90.00)" text-anchor="middle" style="font-family: Arial;font-size: 7.92px;" textLength="15.39px" lengthAdjust="spacingAndGlyphs">0.10</text></g>
<polygon points="38.02,259.49 700.99,259.49 700.99,172.51 38.02,172.51" style="stroke-width: 0.75;" />
</g><g clip-path="url(#c7)">
<g><text x="369.50" y="295.60" text-anchor="middle" style="font-family: Arial;font-size: 7.92px;" textLength="13.20px" lengthAdjust="spacingAndGlyphs">Lag</text></g>
<g><text transform="translate(7.60,216.00) rotate(-90.00)" text-anchor="middle" style="font-family: Arial;font-size: 7.92px;" textLength="15.81px" lengthAdjust="spacingAndGlyphs">ACF</text></g>
</g><g clip-path="url(#c8)">
<line x1="38.02" y1="214.67" x2="700.99" y2="214.67" style="stroke-width: 0.75;"/>
<line x1="38.02" y1="183.41" x2="700.99" y2="183.41" style="stroke-width: 0.75;stroke: #0000FF; stroke-dasharray: 4.00, 4.00;"/>
<line x1="38.02" y1="245.93" x2="700.99" y2="245.93" style="stroke-width: 0.75;stroke: #0000FF; stroke-dasharray: 4.00, 4.00;"/>
</g><g clip-path="url(#c9)">
<g><text x="369.50" y="153.50" text-anchor="middle" style="font-family: Arial;font-size: 9.50px;font-weight: bold;" textLength="44.85px" lengthAdjust="spacingAndGlyphs">ACF of ds</text></g>
</g><g clip-path="url(#c10)">
<line x1="62.57" y1="360.00" x2="62.57" y2="389.08" style="stroke-width: 0.75;"/>
<line x1="83.74" y1="360.00" x2="83.74" y2="366.51" style="stroke-width: 0.75;"/>
<line x1="104.91" y1="360.00" x2="104.91" y2="346.67" style="stroke-width: 0.75;"/>
<line x1="126.07" y1="360.00" x2="126.07" y2="393.04" style="stroke-width: 0.75;"/>
<line x1="147.24" y1="360.00" x2="147.24" y2="382.40" style="stroke-width: 0.75;"/>
<line x1="168.41" y1="360.00" x2="168.41" y2="331.29" style="stroke-width: 0.75;"/>
<line x1="189.58" y1="360.00" x2="189.58" y2="336.41" style="stroke-width: 0.75;"/>
<line x1="210.75" y1="360.00" x2="210.75" y2="333.75" style="stroke-width: 0.75;"/>
<line x1="231.91" y1="360.00" x2="231.91" y2="385.08" style="stroke-width: 0.75;"/>
<line x1="253.08" y1="360.00" x2="253.08" y2="381.06" style="stroke-width: 0.75;"/>
<line x1="274.25" y1="360.00" x2="274.25" y2="361.73" style="stroke-width: 0.75;"/>
<line x1="295.42" y1="360.00" x2="295.42" y2="351.07" style="stroke-width: 0.75;"/>
<line x1="316.58" y1="360.00" x2="316.58" y2="382.28" style="stroke-width: 0.75;"/>
<line x1="337.75" y1="360.00" x2="337.75" y2="370.29" style="stroke-width: 0.75;"/>
<line x1="358.92" y1="360.00" x2="358.92" y2="345.92" style="stroke-width: 0.75;"/>
<line x1="380.09" y1="360.00" x2="380.09" y2="348.41" style="stroke-width: 0.75;"/>
<line x1="401.26" y1="360.00" x2="401.26" y2="334.81" style="stroke-width: 0.75;"/>
<line x1="422.42" y1="360.00" x2="422.42" y2="394.67" style="stroke-width: 0.75;"/>
<line x1="443.59" y1="360.00" x2="443.59" y2="364.14" style="stroke-width: 0.75;"/>
<line x1="464.76" y1="360.00" x2="464.76" y2="353.54" style="stroke-width: 0.75;"/>
<line x1="485.93" y1="360.00" x2="485.93" y2="369.82" style="stroke-width: 0.75;"/>
<line x1="507.09" y1="360.00" x2="507.09" y2="340.49" style="stroke-width: 0.75;"/>
<line x1="528.26" y1="360.00" x2="528.26" y2="357.70" style="stroke-width: 0.75;"/>
<line x1="549.43" y1="360.00" x2="549.43" y2="366.33" style="stroke-width: 0.75;"/>
<line x1="570.60" y1="360.00" x2="570.60" y2="388.46" style="stroke-width: 0.75;"/>
<line x1="591.77" y1="360.00" x2="591.77" y2="365.45" style="stroke-width: 0.75;"/>
<line x1="612.93" y1="360.00" x2="612.93" y2="346.98" style="stroke-width: 0.75;"/>
<line x1="634.10" y1="360.00" x2="634.10" y2="366.10" style="stroke-width: 0.75;"/>
<line x1="655.27" y1="360.00" x2="655.27" y2="357.66" style="stroke-width: 0.75;"/>
<line x1="676.44" y1="360.00" x2="676.44" y2="359.55" style="stroke-width: 0.75;"/>
</g><g clip-path="url(#c11)">
<line x1="38.02" y1="394.64" x2="38.02" y2="325.36" style="stroke-width: 0.75;"/>
<line x1="38.02" y1="394.64" x2="33.26" y2="394.64" style="stroke-width: 0.75;"/>
<line x1="38.02" y1="377.32" x2="33.26" y2="377.32" style="stroke-width: 0.75;"/>
<line x1="38.02" y1="360.00" x2="33.26" y2="360.00" style="stroke-width: 0.75;"/>
<line x1="38.02" y1="342.68" x2="33.26" y2="342.68" style="stroke-width: 0.75;"/>
<line x1="38.02" y1="325.36" x2="33.26" y2="325.36" style="stroke-width: 0.75;"/>
<g><text transform="translate(26.61,394.64) rotate(-90.00)" text-anchor="middle" style="font-family: Arial;font-size: 7.92px;" textLength="18.03px" lengthAdjust="spacingAndGlyphs">-0.10</text></g>
<g><text transform="translate(26.61,360.00) rotate(-90.00)" text-anchor="middle" style="font-family: Arial;font-size: 7.92px;" textLength="15.39px" lengthAdjust="spacingAndGlyphs">0.00</text></g>
<g><text transform="translate(26.61,325.36) rotate(-90.00)" text-anchor="middle" style="font-family: Arial;font-size: 7.92px;" textLength="15.39px" lengthAdjust="spacingAndGlyphs">0.10</text></g>
<polygon points="38.02,403.49 700.99,403.49 700.99,316.51 38.02,316.51" style="stroke-width: 0.75;" />
</g><g clip-path="url(#c12)">
<g><text x="369.50" y="439.60" text-anchor="middle" style="font-family: Arial;font-size: 7.92px;" textLength="13.20px" lengthAdjust="spacingAndGlyphs">Lag</text></g>
<g><text transform="translate(7.60,360.00) rotate(-90.00)" text-anchor="middle" style="font-family: Arial;font-size: 7.92px;" textLength="40.42px" lengthAdjust="spacingAndGlyphs">Partial ACF</text></g>
</g><g clip-path="url(#c13)">
<line x1="38.02" y1="360.00" x2="700.99" y2="360.00" style="stroke-width: 0.75;"/>
<line x1="38.02" y1="333.69" x2="700.99" y2="333.69" style="stroke-width: 0.75;stroke: #0000FF; stroke-dasharray: 4.00, 4.00;"/>
<line x1="38.02" y1="386.31" x2="700.99" y2="386.31" style="stroke-width: 0.75;stroke: #0000FF; stroke-dasharray: 4.00, 4.00;"/>
</g><g clip-path="url(#c14)">
<g><text x="369.50" y="297.50" text-anchor="middle" style="font-family: Arial;font-size: 9.50px;font-weight: bold;" textLength="51.18px" lengthAdjust="spacingAndGlyphs">PACF of ds</text></g>
</g><g clip-path="url(#c15)">
<line x1="41.40" y1="403.49" x2="676.44" y2="403.49" style="stroke-width: 0.75;"/>
<line x1="41.40" y1="403.49" x2="41.40" y2="408.24" style="stroke-width: 0.75;"/>
<line x1="147.24" y1="403.49" x2="147.24" y2="408.24" style="stroke-width: 0.75;"/>
<line x1="253.08" y1="403.49" x2="253.08" y2="408.24" style="stroke-width: 0.75;"/>
<line x1="358.92" y1="403.49" x2="358.92" y2="408.24" style="stroke-width: 0.75;"/>
<line x1="464.76" y1="403.49" x2="464.76" y2="408.24" style="stroke-width: 0.75;"/>
<line x1="570.60" y1="403.49" x2="570.60" y2="408.24" style="stroke-width: 0.75;"/>
<line x1="676.44" y1="403.49" x2="676.44" y2="408.24" style="stroke-width: 0.75;"/>
<g><text x="41.40" y="420.60" text-anchor="middle" style="font-family: Arial;font-size: 7.92px;" textLength="4.40px" lengthAdjust="spacingAndGlyphs">0</text></g>
<g><text x="147.24" y="420.60" text-anchor="middle" style="font-family: Arial;font-size: 7.92px;" textLength="4.40px" lengthAdjust="spacingAndGlyphs">5</text></g>
<g><text x="253.08" y="420.60" text-anchor="middle" style="font-family: Arial;font-size: 7.92px;" textLength="8.80px" lengthAdjust="spacingAndGlyphs">10</text></g>
<g><text x="358.92" y="420.60" text-anchor="middle" style="font-family: Arial;font-size: 7.92px;" textLength="8.80px" lengthAdjust="spacingAndGlyphs">15</text></g>
<g><text x="464.76" y="420.60" text-anchor="middle" style="font-family: Arial;font-size: 7.92px;" textLength="8.80px" lengthAdjust="spacingAndGlyphs">20</text></g>
<g><text x="570.60" y="420.60" text-anchor="middle" style="font-family: Arial;font-size: 7.92px;" textLength="8.80px" lengthAdjust="spacingAndGlyphs">25</text></g>
<g><text x="676.44" y="420.60" text-anchor="middle" style="font-family: Arial;font-size: 7.92px;" textLength="8.80px" lengthAdjust="spacingAndGlyphs">30</text></g>
<line x1="62.57" y1="403.49" x2="676.44" y2="403.49" style="stroke-width: 0.75;"/>
<line x1="62.57" y1="403.49" x2="62.57" y2="405.39" style="stroke-width: 0.75;"/>
<line x1="83.74" y1="403.49" x2="83.74" y2="405.39" style="stroke-width: 0.75;"/>
<line x1="104.91" y1="403.49" x2="104.91" y2="405.39" style="stroke-width: 0.75;"/>
<line x1="126.07" y1="403.49" x2="126.07" y2="405.39" style="stroke-width: 0.75;"/>
<line x1="147.24" y1="403.49" x2="147.24" y2="405.39" style="stroke-width: 0.75;"/>
<line x1="168.41" y1="403.49" x2="168.41" y2="405.39" style="stroke-width: 0.75;"/>
<line x1="189.58" y1="403.49" x2="189.58" y2="405.39" style="stroke-width: 0.75;"/>
<line x1="210.75" y1="403.49" x2="210.75" y2="405.39" style="stroke-width: 0.75;"/>
<line x1="231.91" y1="403.49" x2="231.91" y2="405.39" style="stroke-width: 0.75;"/>
<line x1="253.08" y1="403.49" x2="253.08" y2="405.39" style="stroke-width: 0.75;"/>
<line x1="274.25" y1="403.49" x2="274.25" y2="405.39" style="stroke-width: 0.75;"/>
<line x1="295.42" y1="403.49" x2="295.42" y2="405.39" style="stroke-width: 0.75;"/>
<line x1="316.58" y1="403.49" x2="316.58" y2="405.39" style="stroke-width: 0.75;"/>
<line x1="337.75" y1="403.49" x2="337.75" y2="405.39" style="stroke-width: 0.75;"/>
<line x1="358.92" y1="403.49" x2="358.92" y2="405.39" style="stroke-width: 0.75;"/>
<line x1="380.09" y1="403.49" x2="380.09" y2="405.39" style="stroke-width: 0.75;"/>
<line x1="401.26" y1="403.49" x2="401.26" y2="405.39" style="stroke-width: 0.75;"/>
<line x1="422.42" y1="403.49" x2="422.42" y2="405.39" style="stroke-width: 0.75;"/>
<line x1="443.59" y1="403.49" x2="443.59" y2="405.39" style="stroke-width: 0.75;"/>
<line x1="464.76" y1="403.49" x2="464.76" y2="405.39" style="stroke-width: 0.75;"/>
<line x1="485.93" y1="403.49" x2="485.93" y2="405.39" style="stroke-width: 0.75;"/>
<line x1="507.09" y1="403.49" x2="507.09" y2="405.39" style="stroke-width: 0.75;"/>
<line x1="528.26" y1="403.49" x2="528.26" y2="405.39" style="stroke-width: 0.75;"/>
<line x1="549.43" y1="403.49" x2="549.43" y2="405.39" style="stroke-width: 0.75;"/>
<line x1="570.60" y1="403.49" x2="570.60" y2="405.39" style="stroke-width: 0.75;"/>
<line x1="591.77" y1="403.49" x2="591.77" y2="405.39" style="stroke-width: 0.75;"/>
<line x1="612.93" y1="403.49" x2="612.93" y2="405.39" style="stroke-width: 0.75;"/>
<line x1="634.10" y1="403.49" x2="634.10" y2="405.39" style="stroke-width: 0.75;"/>
<line x1="655.27" y1="403.49" x2="655.27" y2="405.39" style="stroke-width: 0.75;"/>
<line x1="676.44" y1="403.49" x2="676.44" y2="405.39" style="stroke-width: 0.75;"/>
</g><g clip-path="url(#c16)">
<line x1="62.57" y1="528.55" x2="62.57" y2="480.03" style="stroke-width: 0.75;"/>
<line x1="83.74" y1="528.55" x2="83.74" y2="463.73" style="stroke-width: 0.75;"/>
<line x1="104.91" y1="528.55" x2="104.91" y2="481.73" style="stroke-width: 0.75;"/>
<line x1="126.07" y1="528.55" x2="126.07" y2="484.95" style="stroke-width: 0.75;"/>
<line x1="147.24" y1="528.55" x2="147.24" y2="489.59" style="stroke-width: 0.75;"/>
<line x1="168.41" y1="528.55" x2="168.41" y2="485.55" style="stroke-width: 0.75;"/>
<line x1="189.58" y1="528.55" x2="189.58" y2="508.81" style="stroke-width: 0.75;"/>
<line x1="210.75" y1="528.55" x2="210.75" y2="518.52" style="stroke-width: 0.75;"/>
<line x1="231.91" y1="528.55" x2="231.91" y2="512.29" style="stroke-width: 0.75;"/>
<line x1="253.08" y1="528.55" x2="253.08" y2="521.52" style="stroke-width: 0.75;"/>
<line x1="274.25" y1="528.55" x2="274.25" y2="507.09" style="stroke-width: 0.75;"/>
<line x1="295.42" y1="528.55" x2="295.42" y2="495.54" style="stroke-width: 0.75;"/>
<line x1="316.58" y1="528.55" x2="316.58" y2="516.78" style="stroke-width: 0.75;"/>
<line x1="337.75" y1="528.55" x2="337.75" y2="507.36" style="stroke-width: 0.75;"/>
<line x1="358.92" y1="528.55" x2="358.92" y2="514.46" style="stroke-width: 0.75;"/>
<line x1="380.09" y1="528.55" x2="380.09" y2="497.41" style="stroke-width: 0.75;"/>
<line x1="401.26" y1="528.55" x2="401.26" y2="495.45" style="stroke-width: 0.75;"/>
<line x1="422.42" y1="528.55" x2="422.42" y2="480.87" style="stroke-width: 0.75;"/>
<line x1="443.59" y1="528.55" x2="443.59" y2="515.14" style="stroke-width: 0.75;"/>
<line x1="464.76" y1="528.55" x2="464.76" y2="498.81" style="stroke-width: 0.75;"/>
<line x1="485.93" y1="528.55" x2="485.93" y2="516.32" style="stroke-width: 0.75;"/>
<line x1="507.09" y1="528.55" x2="507.09" y2="493.39" style="stroke-width: 0.75;"/>
<line x1="528.26" y1="528.55" x2="528.26" y2="502.77" style="stroke-width: 0.75;"/>
<line x1="549.43" y1="528.55" x2="549.43" y2="506.50" style="stroke-width: 0.75;"/>
<line x1="570.60" y1="528.55" x2="570.60" y2="501.13" style="stroke-width: 0.75;"/>
<line x1="591.77" y1="528.55" x2="591.77" y2="515.95" style="stroke-width: 0.75;"/>
<line x1="612.93" y1="528.55" x2="612.93" y2="501.02" style="stroke-width: 0.75;"/>
<line x1="634.10" y1="528.55" x2="634.10" y2="516.72" style="stroke-width: 0.75;"/>
<line x1="655.27" y1="528.55" x2="655.27" y2="505.41" style="stroke-width: 0.75;"/>
<line x1="676.44" y1="528.55" x2="676.44" y2="518.26" style="stroke-width: 0.75;"/>
</g><g clip-path="url(#c17)">
<line x1="41.40" y1="547.49" x2="676.44" y2="547.49" style="stroke-width: 0.75;"/>
<line x1="41.40" y1="547.49" x2="41.40" y2="552.24" style="stroke-width: 0.75;"/>
<line x1="147.24" y1="547.49" x2="147.24" y2="552.24" style="stroke-width: 0.75;"/>
<line x1="253.08" y1="547.49" x2="253.08" y2="552.24" style="stroke-width: 0.75;"/>
<line x1="358.92" y1="547.49" x2="358.92" y2="552.24" style="stroke-width: 0.75;"/>
<line x1="464.76" y1="547.49" x2="464.76" y2="552.24" style="stroke-width: 0.75;"/>
<line x1="570.60" y1="547.49" x2="570.60" y2="552.24" style="stroke-width: 0.75;"/>
<line x1="676.44" y1="547.49" x2="676.44" y2="552.24" style="stroke-width: 0.75;"/>
<g><text x="41.40" y="564.60" text-anchor="middle" style="font-family: Arial;font-size: 7.92px;" textLength="4.40px" lengthAdjust="spacingAndGlyphs">0</text></g>
<g><text x="147.24" y="564.60" text-anchor="middle" style="font-family: Arial;font-size: 7.92px;" textLength="4.40px" lengthAdjust="spacingAndGlyphs">5</text></g>
<g><text x="253.08" y="564.60" text-anchor="middle" style="font-family: Arial;font-size: 7.92px;" textLength="8.80px" lengthAdjust="spacingAndGlyphs">10</text></g>
<g><text x="358.92" y="564.60" text-anchor="middle" style="font-family: Arial;font-size: 7.92px;" textLength="8.80px" lengthAdjust="spacingAndGlyphs">15</text></g>
<g><text x="464.76" y="564.60" text-anchor="middle" style="font-family: Arial;font-size: 7.92px;" textLength="8.80px" lengthAdjust="spacingAndGlyphs">20</text></g>
<g><text x="570.60" y="564.60" text-anchor="middle" style="font-family: Arial;font-size: 7.92px;" textLength="8.80px" lengthAdjust="spacingAndGlyphs">25</text></g>
<g><text x="676.44" y="564.60" text-anchor="middle" style="font-family: Arial;font-size: 7.92px;" textLength="8.80px" lengthAdjust="spacingAndGlyphs">30</text></g>
<line x1="38.02" y1="528.55" x2="38.02" y2="466.45" style="stroke-width: 0.75;"/>
<line x1="38.02" y1="528.55" x2="33.26" y2="528.55" style="stroke-width: 0.75;"/>
<line x1="38.02" y1="507.85" x2="33.26" y2="507.85" style="stroke-width: 0.75;"/>
<line x1="38.02" y1="487.15" x2="33.26" y2="487.15" style="stroke-width: 0.75;"/>
<line x1="38.02" y1="466.45" x2="33.26" y2="466.45" style="stroke-width: 0.75;"/>
<g><text transform="translate(26.61,528.55) rotate(-90.00)" text-anchor="middle" style="font-family: Arial;font-size: 7.92px;" textLength="10.99px" lengthAdjust="spacingAndGlyphs">0.0</text></g>
<g><text transform="translate(26.61,507.85) rotate(-90.00)" text-anchor="middle" style="font-family: Arial;font-size: 7.92px;" textLength="10.99px" lengthAdjust="spacingAndGlyphs">0.1</text></g>
<g><text transform="translate(26.61,487.15) rotate(-90.00)" text-anchor="middle" style="font-family: Arial;font-size: 7.92px;" textLength="10.99px" lengthAdjust="spacingAndGlyphs">0.2</text></g>
<g><text transform="translate(26.61,466.45) rotate(-90.00)" text-anchor="middle" style="font-family: Arial;font-size: 7.92px;" textLength="10.99px" lengthAdjust="spacingAndGlyphs">0.3</text></g>
<polygon points="38.02,547.49 700.99,547.49 700.99,460.51 38.02,460.51" style="stroke-width: 0.75;" />
</g><g clip-path="url(#c18)">
<g><text x="369.50" y="583.60" text-anchor="middle" style="font-family: Arial;font-size: 7.92px;" textLength="13.20px" lengthAdjust="spacingAndGlyphs">Lag</text></g>
<g><text transform="translate(7.60,504.00) rotate(-90.00)" text-anchor="middle" style="font-family: Arial;font-size: 7.92px;" textLength="15.81px" lengthAdjust="spacingAndGlyphs">ACF</text></g>
</g><g clip-path="url(#c19)">
<line x1="38.02" y1="528.55" x2="700.99" y2="528.55" style="stroke-width: 0.75;"/>
<line x1="38.02" y1="512.82" x2="700.99" y2="512.82" style="stroke-width: 0.75;stroke: #0000FF; stroke-dasharray: 4.00, 4.00;"/>
<line x1="38.02" y1="544.27" x2="700.99" y2="544.27" style="stroke-width: 0.75;stroke: #0000FF; stroke-dasharray: 4.00, 4.00;"/>
</g><g clip-path="url(#c20)">
<g><text x="369.50" y="441.50" text-anchor="middle" style="font-family: Arial;font-size: 9.50px;font-weight: bold;" textLength="85.49px" lengthAdjust="spacingAndGlyphs">ACF of Squared ds</text></g>
</g>
</svg>