<svg xmlns="http://www.w3.org/2000/svg" xmlns:xlink="http://www.w3.org/1999/xlink" class="httpgd" width="720.00" height="576.00" viewBox="0 0 720.00 576.00">
<defs>
  <style type='text/css'><![CDATA[
    .httpgd line, .httpgd polyline, .httpgd polygon, .httpgd path, .httpgd rect, .httpgd circle {
      fill: none;
      stroke: #000000;
      stroke-linecap: round;
      stroke-linejoin: round;
      stroke-miterlimit: 10.00;
    }
  ]]></style>
<clipPath id="c0"><rect x="0.00" y="0.00" width="720.00" height="576.00"/></clipPath>
<clipPath id="c1"><rect x="38.16" y="23.34" width="676.36" height="520.93"/></clipPath>
<clipPath id="c2"><rect x="0.00" y="0.00" width="720.00" height="576.00"/></clipPath>
</defs>
<rect width="100%" height="100%" style="stroke: none;fill: #FFFFFF;"/>
<g clip-path="url(#c0)">
<rect x="0.00" y="0.00" width="720.00" height="576.00" style="stroke-width: 1.07;stroke: none;fill: #FFFFFF;"/>
</g><g clip-path="url(#c1)">
<polyline points="38.16,531.02 714.52,531.02" style="stroke-width: 0.53;stroke: #EBEBEB;stroke-linecap: butt;"/>
<polyline points="38.16,430.75 714.52,430.75" style="stroke-width: 0.53;stroke: #EBEBEB;stroke-linecap: butt;"/>
<polyline points="38.16,330.48 714.52,330.48" style="stroke-width: 0.53;stroke: #EBEBEB;stroke-linecap: butt;"/>
<polyline points="38.16,230.21 714.52,230.21" style="stroke-width: 0.53;stroke: #EBEBEB;stroke-linecap: butt;"/>
<polyline points="38.16,129.94 714.52,129.94" style="stroke-width: 0.53;stroke: #EBEBEB;stroke-linecap: butt;"/>
<polyline points="38.16,29.67 714.52,29.67" style="stroke-width: 0.53;stroke: #EBEBEB;stroke-linecap: butt;"/>
<polyline points="39.60,544.27 39.60,23.34" style="stroke-width: 0.53;stroke: #EBEBEB;stroke-linecap: butt;"/>
<polyline points="78.15,544.27 78.15,23.34" style="stroke-width: 0.53;stroke: #EBEBEB;stroke-linecap: butt;"/>
<polyline points="116.69,544.27 116.69,23.34" style="stroke-width: 0.53;stroke: #EBEBEB;stroke-linecap: butt;"/>
<polyline points="155.28,544.27 155.28,23.34" style="stroke-width: 0.53;stroke: #EBEBEB;stroke-linecap: butt;"/>
<polyline points="193.88,544.27 193.88,23.34" style="stroke-width: 0.53;stroke: #EBEBEB;stroke-linecap: butt;"/>
<polyline points="232.42,544.27 232.42,23.34" style="stroke-width: 0.53;stroke: #EBEBEB;stroke-linecap: butt;"/>
<polyline points="270.96,544.27 270.96,23.34" style="stroke-width: 0.53;stroke: #EBEBEB;stroke-linecap: butt;"/>
<polyline points="309.55,544.27 309.55,23.34" style="stroke-width: 0.53;stroke: #EBEBEB;stroke-linecap: butt;"/>
<polyline points="348.15,544.27 348.15,23.34" style="stroke-width: 0.53;stroke: #EBEBEB;stroke-linecap: butt;"/>
<polyline points="386.69,544.27 386.69,23.34" style="stroke-width: 0.53;stroke: #EBEBEB;stroke-linecap: butt;"/>
<polyline points="425.23,544.27 425.23,23.34" style="stroke-width: 0.53;stroke: #EBEBEB;stroke-linecap: butt;"/>
<polyline points="463.83,544.27 463.83,23.34" style="stroke-width: 0.53;stroke: #EBEBEB;stroke-linecap: butt;"/>
<polyline points="502.42,544.27 502.42,23.34" style="stroke-width: 0.53;stroke: #EBEBEB;stroke-linecap: butt;"/>
<polyline points="540.96,544.27 540.96,23.34" style="stroke-width: 0.53;stroke: #EBEBEB;stroke-linecap: butt;"/>
<polyline points="579.50,544.27 579.50,23.34" style="stroke-width: 0.53;stroke: #EBEBEB;stroke-linecap: butt;"/>
<polyline points="618.10,544.27 618.10,23.34" style="stroke-width: 0.53;stroke: #EBEBEB;stroke-linecap: butt;"/>
<polyline points="656.69,544.27 656.69,23.34" style="stroke-width: 0.53;stroke: #EBEBEB;stroke-linecap: butt;"/>
<polyline points="695.23,544.27 695.23,23.34" style="stroke-width: 0.53;stroke: #EBEBEB;stroke-linecap: butt;"/>
<polyline points="38.16,480.88 714.52,480.88" style="stroke-width: 1.07;stroke: #EBEBEB;stroke-linecap: butt;"/>
<polyline points="38.16,380.61 714.52,380.61" style="stroke-width: 1.07;stroke: #EBEBEB;stroke-linecap: butt;"/>
<polyline points="38.16,280.34 714.52,280.34" style="stroke-width: 1.07;stroke: #EBEBEB;stroke-linecap: butt;"/>
<polyline points="38.16,180.07 714.52,180.07" style="stroke-width: 1.07;stroke: #EBEBEB;stroke-linecap: butt;"/>
<polyline points="38.16,79.80 714.52,79.80" style="stroke-width: 1.07;stroke: #EBEBEB;stroke-linecap: butt;"/>
<polyline points="58.88,544.27 58.88,23.34" style="stroke-width: 1.07;stroke: #EBEBEB;stroke-linecap: butt;"/>
<polyline points="97.42,544.27 97.42,23.34" style="stroke-width: 1.07;stroke: #EBEBEB;stroke-linecap: butt;"/>
<polyline points="135.96,544.27 135.96,23.34" style="stroke-width: 1.07;stroke: #EBEBEB;stroke-linecap: butt;"/>
<polyline points="174.61,544.27 174.61,23.34" style="stroke-width: 1.07;stroke: #EBEBEB;stroke-linecap: butt;"/>
<polyline points="213.15,544.27 213.15,23.34" style="stroke-width: 1.07;stroke: #EBEBEB;stroke-linecap: butt;"/>
<polyline points="251.69,544.27 251.69,23.34" style="stroke-width: 1.07;stroke: #EBEBEB;stroke-linecap: butt;"/>
<polyline points="290.23,544.27 290.23,23.34" style="stroke-width: 1.07;stroke: #EBEBEB;stroke-linecap: butt;"/>
<polyline points="328.88,544.27 328.88,23.34" style="stroke-width: 1.07;stroke: #EBEBEB;stroke-linecap: butt;"/>
<polyline points="367.42,544.27 367.42,23.34" style="stroke-width: 1.07;stroke: #EBEBEB;stroke-linecap: butt;"/>
<polyline points="405.96,544.27 405.96,23.34" style="stroke-width: 1.07;stroke: #EBEBEB;stroke-linecap: butt;"/>
<polyline points="444.50,544.27 444.50,23.34" style="stroke-width: 1.07;stroke: #EBEBEB;stroke-linecap: butt;"/>
<polyline points="483.15,544.27 483.15,23.34" style="stroke-width: 1.07;stroke: #EBEBEB;stroke-linecap: butt;"/>
<polyline points="521.69,544.27 521.69,23.34" style="stroke-width: 1.07;stroke: #EBEBEB;stroke-linecap: butt;"/>
<polyline points="560.23,544.27 560.23,23.34" style="stroke-width: 1.07;stroke: #EBEBEB;stroke-linecap: butt;"/>
<polyline points="598.77,544.27 598.77,23.34" style="stroke-width: 1.07;stroke: #EBEBEB;stroke-linecap: butt;"/>
<polyline points="637.42,544.27 637.42,23.34" style="stroke-width: 1.07;stroke: #EBEBEB;stroke-linecap: butt;"/>
<polyline points="675.96,544.27 675.96,23.34" style="stroke-width: 1.07;stroke: #EBEBEB;stroke-linecap: butt;"/>
<polyline points="714.50,544.27 714.50,23.34" style="stroke-width: 1.07;stroke: #EBEBEB;stroke-linecap: butt;"/>
<polyline points="68.91,506.35 69.54,494.42 70.28,485.69 71.02,480.28 71.76,425.23 72.50,475.07 73.24,450.90 74.08,433.65 74.71,412.00 75.45,433.95 76.19,454.71 76.93,430.85 77.67,435.16 78.41,439.87 79.15,433.75 79.89,446.69 80.63,451.40 81.37,453.41 82.11,430.85 82.85,426.33 83.58,420.12 84.32,437.66 85.06,436.86 85.80,430.75 86.54,421.92 87.28,421.92 88.02,431.25 88.76,440.27 89.50,442.48 90.24,438.67 91.08,423.83 91.72,414.90 92.45,424.83 93.19,405.58 93.93,423.03 94.67,418.71 95.41,417.81 96.15,407.68 96.89,377.10 97.63,386.13 98.37,414.40 99.11,427.84 99.85,418.91 100.58,444.68 101.32,431.65 102.06,426.13 102.80,410.39 103.54,412.30 104.28,405.88 105.02,420.92 105.76,422.02 106.50,427.34 107.24,444.18 107.98,434.76 108.72,421.92 109.56,421.22 110.19,422.02 110.93,417.21 111.67,408.39 112.41,403.57 113.15,423.23 113.89,396.65 114.73,392.54 115.37,364.97 116.11,395.75 116.85,336.79 117.59,269.41 118.32,322.15 119.06,241.74 119.80,201.73 120.54,309.82 121.39,295.88 122.02,283.95 122.76,249.96 123.50,217.77 124.24,216.37 124.98,187.39 125.72,213.76 126.46,227.00 127.19,220.28 127.93,198.42 128.67,199.32 129.41,126.53 130.15,108.28 130.89,104.87 131.63,64.96 132.37,114.19 133.11,146.88 133.85,66.67 134.59,74.29 135.43,55.44 136.06,47.01 136.80,87.82 137.54,143.57 138.28,174.06 139.02,202.53 139.76,210.45 140.50,212.76 141.24,219.18 141.98,269.71 142.72,274.93 143.46,298.59 144.20,260.89 144.93,246.45 145.67,208.75 146.41,211.06 147.15,176.96 147.89,183.58 148.63,191.40 149.37,163.73 150.11,129.14 150.85,137.36 151.59,110.38 152.33,135.45 153.06,128.33 153.80,161.02 154.54,156.71 155.28,107.98 156.02,103.97 156.76,79.20 157.50,123.12 158.24,110.99 158.98,125.63 159.72,147.79 160.46,138.26 161.20,127.33 161.93,219.18 162.67,244.34 163.41,231.01 164.15,212.56 164.89,227.10 165.63,229.10 166.37,263.10 167.11,242.24 167.85,230.21 168.59,214.97 169.33,224.19 170.07,247.65 170.80,266.30 171.54,253.97 172.28,257.28 173.02,271.52 173.76,259.08 174.50,306.51 175.24,327.47 175.98,316.64 176.72,324.66 177.46,314.93 178.20,284.45 178.94,308.52 179.67,291.27 180.41,242.54 181.15,273.12 181.89,264.20 182.63,264.50 183.37,233.01 184.21,262.69 184.85,272.02 185.59,283.15 186.33,293.78 187.07,323.16 187.81,327.87 188.54,321.25 189.39,302.10 190.02,312.73 190.76,310.22 191.50,298.79 192.24,293.98 192.98,298.19 193.72,308.92 194.46,286.56 195.20,290.87 195.94,305.91 196.67,317.64 197.41,329.57 198.15,348.02 198.89,340.00 199.63,326.67 200.37,323.86 201.11,316.24 201.85,341.61 202.59,310.92 203.33,331.78 204.07,336.59 204.81,345.82 205.54,334.19 206.28,334.79 207.02,341.00 207.76,341.21 208.50,346.12 209.24,344.61 209.98,344.01 210.72,353.94 211.46,355.04 212.20,353.24 212.94,380.21 213.68,373.79 214.41,374.39 215.15,356.35 215.89,358.75 216.63,377.10 217.37,380.31 218.11,386.33 218.85,395.15 219.59,403.57 220.33,392.54 221.07,402.57 221.81,405.28 222.55,417.91 223.28,410.09 224.02,419.32 224.87,416.91 225.50,421.02 226.24,430.24 226.98,406.18 227.72,401.37 228.46,414.70 229.20,434.26 230.04,439.17 230.68,430.24 231.42,434.26 232.15,435.66 232.89,410.89 233.63,415.71 234.37,423.03 235.11,420.62 235.85,401.57 236.59,414.30 237.33,420.82 238.07,425.53 238.81,447.09 239.55,437.06 240.28,442.68 241.02,439.07 241.76,440.67 242.50,437.26 243.24,417.61 243.98,417.41 244.72,427.14 245.46,424.93 246.20,424.83 246.94,437.87 247.68,446.19 248.42,464.04 249.15,436.56 249.89,445.29 250.63,445.49 251.37,454.31 252.11,439.97 252.85,454.91 253.59,459.52 254.33,450.10 255.07,459.92 255.81,452.30 256.55,460.23 257.29,480.28 258.02,489.30 258.76,490.41 259.50,477.97 260.24,466.34 260.98,472.86 261.83,474.46 262.46,443.58 263.20,452.40 263.94,466.44 264.68,467.54 265.42,465.24 266.16,456.11 266.89,444.28 267.63,441.07 268.37,438.27 269.11,425.93 269.85,457.32 270.59,430.95 271.33,452.30 272.07,459.92 272.81,457.92 273.55,462.63 274.29,462.73 275.03,464.84 275.76,452.70 276.50,460.63 277.24,458.42 277.98,462.43 278.72,470.75 279.46,466.34 280.20,466.94 280.94,472.26 281.68,474.46 282.42,481.68 283.16,484.19 283.90,482.18 284.63,479.38 285.37,479.08 286.11,486.30 286.85,484.29 287.59,480.78 288.33,478.98 289.07,477.37 289.81,483.69 290.55,479.08 291.29,472.66 292.03,464.44 292.76,464.94 293.50,455.21 294.24,440.07 294.98,442.28 295.72,445.59 296.46,457.52 297.20,473.86 297.94,475.07 298.68,468.55 299.52,473.46 300.16,458.72 300.90,458.92 301.63,456.31 302.37,458.92 303.11,447.09 303.85,444.68 304.59,448.99 305.33,458.62 306.07,454.11 306.81,451.20 307.55,437.76 308.29,424.33 309.03,453.31 309.77,450.50 310.50,455.61 311.24,447.89 311.98,446.19 312.72,453.81 313.46,458.52 314.20,462.83 314.94,461.13 315.68,459.22 316.42,456.01 317.16,447.29 317.90,451.20 318.64,448.69 319.37,444.88 320.11,448.29 320.85,444.38 321.59,438.77 322.33,425.93 323.07,414.50 323.81,407.18 324.55,394.85 325.29,416.91 326.03,411.19 326.77,423.03 327.51,421.02 328.35,416.91 328.98,413.50 329.72,417.21 330.46,413.50 331.20,402.17 331.94,395.95 332.68,387.13 333.42,393.45 334.16,381.31 334.90,403.87 335.64,393.75 336.37,387.63 337.11,380.61 337.85,382.72 338.59,381.61 339.33,370.89 340.18,377.30 340.81,385.83 341.65,405.18 342.29,394.95 343.03,404.27 343.77,403.77 344.51,382.62 345.24,397.86 345.98,410.39 346.72,414.90 347.46,411.39 348.20,404.07 348.94,404.07 349.68,422.52 350.42,423.03 351.16,426.84 351.90,416.11 352.64,418.61 353.38,408.39 354.11,410.99 354.85,416.11 355.59,416.61 356.33,415.40 357.07,409.59 357.81,405.18 358.55,415.50 359.29,420.72 360.03,425.23 360.77,437.97 361.51,436.86 362.25,433.85 362.98,434.56 363.72,441.58 364.46,446.99 365.20,429.04 365.94,428.84 366.89,423.63 367.52,424.73 368.16,434.05 368.90,434.36 369.64,437.66 370.38,448.79 371.12,445.69 371.85,452.40 372.59,439.77 373.33,440.77 374.07,446.09 374.81,440.77 375.55,445.29 376.29,451.10 377.13,451.60 377.77,451.80 378.51,461.83 379.25,463.63 379.98,456.52 380.72,447.89 381.46,416.41 382.20,374.80 382.94,348.32 383.68,311.12 384.42,359.65 385.16,344.01 385.90,343.01 386.64,336.99 387.38,351.53 388.12,352.44 388.85,347.72 389.59,324.46 390.33,316.24 391.07,296.08 391.81,300.30 392.55,290.97 393.29,330.68 394.03,327.27 394.77,343.91 395.51,312.83 396.25,294.98 396.99,274.63 397.72,269.21 398.46,268.71 399.20,290.77 399.94,281.14 400.68,267.81 401.42,271.82 402.16,290.37 402.90,291.17 403.64,310.82 404.38,322.76 405.12,330.18 405.86,311.63 406.59,312.13 407.33,328.07 408.07,329.98 408.81,316.34 409.55,289.07 410.29,309.52 411.03,303.60 411.77,324.76 412.51,335.19 413.25,337.70 413.99,331.78 414.73,324.46 415.46,332.28 416.20,347.12 416.94,324.36 417.79,318.24 418.42,326.77 419.16,306.81 419.90,303.20 420.64,313.33 421.38,295.88 422.12,318.14 422.86,322.86 423.60,335.69 424.33,339.60 425.07,370.68 425.81,382.32 426.55,382.22 427.29,381.41 428.03,372.89 428.77,341.41 429.51,370.99 430.25,382.01 430.99,404.07 431.73,429.74 432.46,447.59 433.20,436.96 433.94,439.57 434.68,439.17 435.42,442.38 436.16,450.00 436.90,447.99 437.64,442.98 438.38,436.06 439.12,423.03 439.86,425.53 440.60,421.42 441.33,417.01 442.07,434.76 442.81,423.23 443.55,427.04 444.29,427.94 445.03,424.23 445.77,417.11 446.51,421.32 447.25,440.57 447.99,443.98 448.73,445.39 449.47,445.99 450.20,408.69 450.94,400.56 451.68,338.70 452.42,386.73 453.16,398.46 453.90,383.12 454.64,385.42 455.48,351.23 456.12,344.21 456.86,343.71 457.60,346.52 458.34,341.91 459.07,371.69 459.81,385.12 460.55,411.39 461.29,394.05 462.03,402.67 462.77,399.46 463.51,406.18 464.25,406.38 464.99,413.10 465.73,435.86 466.47,425.93 467.21,437.56 467.94,438.87 468.68,435.36 469.42,435.96 470.16,430.34 470.90,433.95 471.64,440.67 472.38,444.08 473.12,453.21 473.86,459.82 474.60,458.02 475.34,446.49 476.07,446.59 476.81,456.21 477.55,463.23 478.29,462.23 479.03,465.84 479.77,466.94 480.51,464.74 481.25,469.65 481.99,466.34 482.73,464.24 483.47,472.16 484.21,461.83 484.94,452.10 485.68,464.84 486.42,482.38 487.16,489.50 487.90,487.30 488.64,477.87 489.38,474.86 490.12,486.90 490.86,484.29 491.60,484.79 492.34,485.19 493.18,477.17 493.81,478.78 494.55,476.17 495.29,473.56 496.03,466.54 496.77,464.44 497.51,468.65 498.25,475.17 498.99,477.47 499.73,483.69 500.47,473.56 501.21,473.46 501.95,479.38 502.68,474.86 503.42,475.77 504.16,476.37 504.90,472.46 505.64,478.07 506.38,478.98 507.12,476.67 507.86,473.86 508.60,473.66 509.34,476.47 510.08,480.18 510.82,479.48 511.55,476.67 512.29,476.67 513.03,475.57 513.77,474.56 514.51,455.31 515.25,469.25 515.99,458.22 516.73,459.72 517.47,450.10 518.21,448.99 518.95,448.89 519.68,451.00 520.42,443.18 521.16,444.78 521.90,440.47 522.64,444.88 523.38,444.98 524.12,446.19 524.86,425.83 525.60,413.60 526.34,415.00 527.08,417.21 527.82,416.61 528.55,419.92 529.29,428.54 530.03,429.14 530.77,425.03 531.51,413.80 532.25,414.80 533.10,409.69 533.73,396.55 534.47,379.61 535.21,389.74 535.95,375.90 536.69,384.82 537.42,366.27 538.16,352.74 538.90,388.23 539.64,380.41 540.38,392.74 541.12,381.91 541.86,360.96 542.60,344.71 543.34,348.83 544.08,377.00 544.82,372.89 545.56,363.57 546.29,357.65 547.03,345.92 547.77,347.82 548.51,351.33 549.25,351.23 549.99,335.99 550.73,329.77 551.47,335.09 552.21,345.82 552.95,373.49 553.69,362.66 554.43,375.60 555.16,393.04 555.90,391.24 556.64,388.93 557.38,391.74 558.12,367.58 558.86,367.68 559.70,366.77 560.34,381.31 561.08,394.55 561.82,396.15 562.56,380.31 563.30,394.95 564.03,396.15 564.77,395.25 565.51,389.94 566.25,396.96 566.99,397.96 567.73,385.52 568.47,392.64 569.21,398.46 569.95,395.95 570.79,394.15 571.43,393.25 572.16,392.94 573.01,389.54 573.64,389.94 574.38,397.36 575.12,394.45 575.86,414.10 576.60,407.28 577.34,424.53 578.08,416.41 578.82,412.60 579.56,407.58 580.30,410.59 581.03,416.11 581.77,415.30 582.51,412.50 583.25,417.41 583.99,409.99 584.73,412.80 585.47,412.90 586.21,406.78 586.95,401.77 587.69,396.45 588.43,386.53 589.17,375.70 589.90,377.70 590.64,377.70 591.38,383.62 592.12,399.96 592.86,399.96 593.60,408.89 594.34,411.39 595.08,411.19 595.82,406.68 596.56,414.40 597.30,427.04 598.25,416.31 598.88,417.31 599.51,426.94 600.25,423.53 600.99,425.13 601.73,422.72 602.47,422.52 603.21,432.65 603.95,435.96 604.69,434.66 605.43,450.40 606.17,454.11 606.91,449.70 607.64,443.68 608.49,441.68 609.12,441.98 609.86,441.37 610.60,448.99 611.34,451.90 612.08,450.80 612.82,455.11 613.56,453.81 614.30,452.50 615.04,450.50 615.77,427.14 616.51,430.14 617.25,425.13 617.99,445.08 618.73,452.50 619.47,451.70 620.21,446.19 620.95,435.46 621.69,440.07 622.43,441.78 623.17,446.29 623.91,440.47 624.64,443.48 625.38,451.30 626.12,453.01 626.86,456.92 627.60,458.02 628.34,459.72 629.08,471.56 629.82,459.12 630.56,453.21 631.30,451.50 632.04,461.03 632.78,455.31 633.51,460.43 634.25,471.56 634.99,467.14 635.73,463.94 636.47,466.04 637.21,463.63 637.95,460.33 638.69,469.45 639.43,471.96 640.17,471.36 640.91,471.56 641.65,471.15 642.38,471.36 643.12,466.94 643.86,468.95 644.60,468.15 645.34,468.75 646.08,468.75 646.82,460.53 647.56,454.21 648.30,462.53 649.14,468.75 649.78,470.95 650.52,475.47 651.25,480.38 651.99,478.37 652.73,482.08 653.47,487.90 654.21,485.29 654.95,481.98 655.69,492.01 656.43,493.92 657.17,493.21 657.91,492.11 658.65,494.12 659.38,495.42 660.12,498.63 660.86,498.33 661.60,497.53 662.34,491.01 663.08,494.22 663.82,497.53 664.56,498.83 665.30,494.62 666.04,496.52 666.78,497.12 667.52,500.43 668.25,501.94 668.99,505.55 669.73,503.94 670.47,505.95 671.21,503.94 671.95,509.56 672.69,511.86 673.43,510.96 674.17,512.06 674.91,511.66 675.65,509.26 676.39,513.67 677.12,514.57 677.86,516.58 678.60,515.27 679.34,514.77 680.08,515.98 680.82,520.59 681.56,517.98 682.30,503.64 683.04,499.53 683.78,501.64" style="stroke-width: 1.71;stroke-linecap: butt;"/>
</g><g clip-path="url(#c2)">
<g><text x="33.23" y="484.03" text-anchor="end" style="font-family: Arial;font-size: 8.80px;fill: #4D4D4D;" textLength="14.69px" lengthAdjust="spacingAndGlyphs">100</text></g>
<g><text x="33.23" y="383.76" text-anchor="end" style="font-family: Arial;font-size: 8.80px;fill: #4D4D4D;" textLength="14.69px" lengthAdjust="spacingAndGlyphs">200</text></g>
<g><text x="33.23" y="283.50" text-anchor="end" style="font-family: Arial;font-size: 8.80px;fill: #4D4D4D;" textLength="14.69px" lengthAdjust="spacingAndGlyphs">300</text></g>
<g><text x="33.23" y="183.23" text-anchor="end" style="font-family: Arial;font-size: 8.80px;fill: #4D4D4D;" textLength="14.69px" lengthAdjust="spacingAndGlyphs">400</text></g>
<g><text x="33.23" y="82.96" text-anchor="end" style="font-family: Arial;font-size: 8.80px;fill: #4D4D4D;" textLength="14.69px" lengthAdjust="spacingAndGlyphs">500</text></g>
<g><text x="58.88" y="555.50" text-anchor="middle" style="font-family: Arial;font-size: 8.80px;fill: #4D4D4D;" textLength="19.58px" lengthAdjust="spacingAndGlyphs">2010</text></g>
<g><text x="97.42" y="555.50" text-anchor="middle" style="font-family: Arial;font-size: 8.80px;fill: #4D4D4D;" textLength="19.58px" lengthAdjust="spacingAndGlyphs">2011</text></g>
<g><text x="135.96" y="555.50" text-anchor="middle" style="font-family: Arial;font-size: 8.80px;fill: #4D4D4D;" textLength="19.58px" lengthAdjust="spacingAndGlyphs">2012</text></g>
<g><text x="174.61" y="555.50" text-anchor="middle" style="font-family: Arial;font-size: 8.80px;fill: #4D4D4D;" textLength="19.58px" lengthAdjust="spacingAndGlyphs">2013</text></g>
<g><text x="213.15" y="555.50" text-anchor="middle" style="font-family: Arial;font-size: 8.80px;fill: #4D4D4D;" textLength="19.58px" lengthAdjust="spacingAndGlyphs">2014</text></g>
<g><text x="251.69" y="555.50" text-anchor="middle" style="font-family: Arial;font-size: 8.80px;fill: #4D4D4D;" textLength="19.58px" lengthAdjust="spacingAndGlyphs">2015</text></g>
<g><text x="290.23" y="555.50" text-anchor="middle" style="font-family: Arial;font-size: 8.80px;fill: #4D4D4D;" textLength="19.58px" lengthAdjust="spacingAndGlyphs">2016</text></g>
<g><text x="328.88" y="555.50" text-anchor="middle" style="font-family: Arial;font-size: 8.80px;fill: #4D4D4D;" textLength="19.58px" lengthAdjust="spacingAndGlyphs">2017</text></g>
<g><text x="367.42" y="555.50" text-anchor="middle" style="font-family: Arial;font-size: 8.80px;fill: #4D4D4D;" textLength="19.58px" lengthAdjust="spacingAndGlyphs">2018</text></g>
<g><text x="405.96" y="555.50" text-anchor="middle" style="font-family: Arial;font-size: 8.80px;fill: #4D4D4D;" textLength="19.58px" lengthAdjust="spacingAndGlyphs">2019</text></g>
<g><text x="444.50" y="555.50" text-anchor="middle" style="font-family: Arial;font-size: 8.80px;fill: #4D4D4D;" textLength="19.58px" lengthAdjust="spacingAndGlyphs">2020</text></g>
<g><text x="483.15" y="555.50" text-anchor="middle" style="font-family: Arial;font-size: 8.80px;fill: #4D4D4D;" textLength="19.58px" lengthAdjust="spacingAndGlyphs">2021</text></g>
<g><text x="521.69" y="555.50" text-anchor="middle" style="font-family: Arial;font-size: 8.80px;fill: #4D4D4D;" textLength="19.58px" lengthAdjust="spacingAndGlyphs">2022</text></g>
<g><text x="560.23" y="555.50" text-anchor="middle" style="font-family: Arial;font-size: 8.80px;fill: #4D4D4D;" textLength="19.58px" lengthAdjust="spacingAndGlyphs">2023</text></g>
<g><text x="598.77" y="555.50" text-anchor="middle" style="font-family: Arial;font-size: 8.80px;fill: #4D4D4D;" textLength="19.58px" lengthAdjust="spacingAndGlyphs">2024</text></g>
<g><text x="637.42" y="555.50" text-anchor="middle" style="font-family: Arial;font-size: 8.80px;fill: #4D4D4D;" textLength="19.58px" lengthAdjust="spacingAndGlyphs">2025</text></g>
<g><text x="675.96" y="555.50" text-anchor="middle" style="font-family: Arial;font-size: 8.80px;fill: #4D4D4D;" textLength="19.58px" lengthAdjust="spacingAndGlyphs">2026</text></g>
<g><text x="714.50" y="555.50" text-anchor="middle" style="font-family: Arial;font-size: 8.80px;fill: #4D4D4D;" textLength="19.58px" lengthAdjust="spacingAndGlyphs">2027</text></g>
<g><text transform="translate(13.37,283.80) rotate(-90.00)" text-anchor="middle" style="font-family: Arial;font-size: 11.00px;" textLength="59.31px" lengthAdjust="spacingAndGlyphs">Basis points</text></g>
<g><text x="38.16" y="14.94" style="font-family: Arial;font-size: 13.20px;" textLength="216.99px" lengthAdjust="spacingAndGlyphs">10 Years BTP-BUND Weekly Spread</text></g>
</g>
</svg>