<svg xmlns="http://www.w3.org/2000/svg" xmlns:xlink="http://www.w3.org/1999/xlink" class="httpgd" width="1094.40" height="676.00" viewBox="0 0 1094.40 676.00">
<defs>
  <style type='text/css'><![CDATA[
    .httpgd line, .httpgd polyline, .httpgd polygon, .httpgd path, .httpgd rect, .httpgd circle {
      fill: none;
      stroke: #000000;
      stroke-linecap: round;
      stroke-linejoin: round;
      stroke-miterlimit: 10.00;
    }
  ]]></style>
<clipPath id="c0"><rect x="0.00" y="0.00" width="1094.40" height="676.00"/></clipPath>
<clipPath id="c1"><rect x="38.16" y="23.34" width="1050.76" height="581.73"/></clipPath>
<clipPath id="c2"><rect x="0.00" y="0.00" width="1094.40" height="676.00"/></clipPath>
</defs>
<rect width="100%" height="100%" style="stroke: none;fill: #FFFFFF;"/>
<g clip-path="url(#c0)">
<rect x="0.00" y="0.00" width="1094.40" height="676.00" style="stroke-width: 1.07;stroke: none;fill: #FFFFFF;"/>
</g><g clip-path="url(#c1)">
<polyline points="38.16,572.56 1088.92,572.56" style="stroke-width: 0.53;stroke: #EBEBEB;stroke-linecap: butt;"/>
<polyline points="38.16,511.53 1088.92,511.53" style="stroke-width: 0.53;stroke: #EBEBEB;stroke-linecap: butt;"/>
<polyline points="38.16,450.51 1088.92,450.51" style="stroke-width: 0.53;stroke: #EBEBEB;stroke-linecap: butt;"/>
<polyline points="38.16,389.48 1088.92,389.48" style="stroke-width: 0.53;stroke: #EBEBEB;stroke-linecap: butt;"/>
<polyline points="38.16,328.45 1088.92,328.45" style="stroke-width: 0.53;stroke: #EBEBEB;stroke-linecap: butt;"/>
<polyline points="38.16,267.42 1088.92,267.42" style="stroke-width: 0.53;stroke: #EBEBEB;stroke-linecap: butt;"/>
<polyline points="38.16,206.40 1088.92,206.40" style="stroke-width: 0.53;stroke: #EBEBEB;stroke-linecap: butt;"/>
<polyline points="38.16,145.37 1088.92,145.37" style="stroke-width: 0.53;stroke: #EBEBEB;stroke-linecap: butt;"/>
<polyline points="38.16,84.34 1088.92,84.34" style="stroke-width: 0.53;stroke: #EBEBEB;stroke-linecap: butt;"/>
<polyline points="224.45,605.07 224.45,23.34" style="stroke-width: 0.53;stroke: #EBEBEB;stroke-linecap: butt;"/>
<polyline points="526.74,605.07 526.74,23.34" style="stroke-width: 0.53;stroke: #EBEBEB;stroke-linecap: butt;"/>
<polyline points="829.02,605.07 829.02,23.34" style="stroke-width: 0.53;stroke: #EBEBEB;stroke-linecap: butt;"/>
<polyline points="38.16,603.08 1088.92,603.08" style="stroke-width: 1.07;stroke: #EBEBEB;stroke-linecap: butt;"/>
<polyline points="38.16,542.05 1088.92,542.05" style="stroke-width: 1.07;stroke: #EBEBEB;stroke-linecap: butt;"/>
<polyline points="38.16,481.02 1088.92,481.02" style="stroke-width: 1.07;stroke: #EBEBEB;stroke-linecap: butt;"/>
<polyline points="38.16,419.99 1088.92,419.99" style="stroke-width: 1.07;stroke: #EBEBEB;stroke-linecap: butt;"/>
<polyline points="38.16,358.97 1088.92,358.97" style="stroke-width: 1.07;stroke: #EBEBEB;stroke-linecap: butt;"/>
<polyline points="38.16,297.94 1088.92,297.94" style="stroke-width: 1.07;stroke: #EBEBEB;stroke-linecap: butt;"/>
<polyline points="38.16,236.91 1088.92,236.91" style="stroke-width: 1.07;stroke: #EBEBEB;stroke-linecap: butt;"/>
<polyline points="38.16,175.88 1088.92,175.88" style="stroke-width: 1.07;stroke: #EBEBEB;stroke-linecap: butt;"/>
<polyline points="38.16,114.86 1088.92,114.86" style="stroke-width: 1.07;stroke: #EBEBEB;stroke-linecap: butt;"/>
<polyline points="38.16,53.83 1088.92,53.83" style="stroke-width: 1.07;stroke: #EBEBEB;stroke-linecap: butt;"/>
<polyline points="73.52,605.07 73.52,23.34" style="stroke-width: 1.07;stroke: #EBEBEB;stroke-linecap: butt;"/>
<polyline points="375.39,605.07 375.39,23.34" style="stroke-width: 1.07;stroke: #EBEBEB;stroke-linecap: butt;"/>
<polyline points="678.09,605.07 678.09,23.34" style="stroke-width: 1.07;stroke: #EBEBEB;stroke-linecap: butt;"/>
<polyline points="979.96,605.07 979.96,23.34" style="stroke-width: 1.07;stroke: #EBEBEB;stroke-linecap: butt;"/>
<polyline points="85.93,157.27 91.71,162.15 97.50,113.94 103.29,158.49 109.08,162.15 114.87,159.41 120.66,143.23 126.45,164.59 132.24,167.65 138.03,129.81 143.82,151.47 149.61,169.17 156.22,161.54 161.19,156.05 166.98,153.30 173.59,152.39 178.55,142.01 184.34,143.23 190.13,165.81 195.92,156.97 201.71,216.77 207.50,196.02 213.29,248.51 219.08,223.79 224.87,212.20 230.66,196.94 236.45,206.09 242.24,222.87 248.03,220.43 253.81,211.89 259.60,226.84 265.39,204.26 271.18,212.81 276.97,213.11 282.76,194.50 288.55,179.24 294.34,163.07 300.13,132.86 305.92,99.90 311.71,106.01 317.50,106.01 323.29,124.01 329.08,173.75 334.86,173.75 340.65,200.91 346.44,208.53 352.23,207.92 358.02,194.19 363.81,217.69 371.25,256.13 376.22,223.49 381.18,226.54 386.97,255.83 392.76,245.46 398.55,250.34 404.34,243.01 410.13,242.40 415.91,273.22 421.70,283.29 427.49,279.33 433.28,327.23 439.07,338.52 444.86,325.10 451.48,306.79 456.44,300.68 462.23,301.60 468.02,299.77 473.81,322.96 479.60,331.81 485.39,328.45 491.18,341.57 496.97,337.61 502.75,333.64 508.54,327.54 514.33,256.44 520.12,265.59 525.91,250.34 531.70,311.06 537.49,333.64 543.28,331.20 549.07,314.42 554.86,281.77 560.65,295.80 566.44,300.99 572.23,314.72 578.02,297.02 583.80,306.18 589.59,329.98 595.38,335.17 601.17,347.07 606.96,350.42 612.75,355.61 618.54,391.62 624.33,353.78 630.12,335.78 635.91,330.59 641.70,359.58 647.49,342.18 653.28,357.75 659.07,391.62 664.85,378.19 670.64,368.43 676.43,374.83 682.22,367.51 688.01,357.44 693.80,385.21 699.59,392.84 705.38,391.01 711.17,391.62 716.96,390.40 722.75,391.01 728.54,377.58 734.33,383.68 740.12,381.24 745.90,383.07 751.69,383.07 757.48,358.05 763.27,338.83 769.89,364.15 774.85,383.07 780.64,389.78 786.43,403.52 792.22,418.47 798.01,412.36 803.80,423.66 809.59,441.35 815.38,433.42 821.17,423.35 826.95,453.86 832.74,459.66 838.53,457.53 844.32,454.17 850.11,460.27 855.90,464.24 861.69,474.00 867.48,473.09 873.27,470.65 879.06,450.81 884.85,460.58 890.64,470.65 896.43,474.61 902.22,461.80 908.01,467.59 913.79,469.43 919.58,479.50 925.37,484.07 931.16,495.06 936.95,490.17 942.74,496.28 948.53,490.17 954.32,507.26 960.11,514.28 965.90,511.53 971.69,514.89 977.48,513.67 983.27,506.35 989.06,519.77 994.84,522.52 1000.63,528.62 1006.42,524.66 1012.21,523.13 1018.00,526.79 1023.79,540.83 1029.58,532.89 1035.37,489.26 1041.16,476.75" style="stroke-width: 1.71;stroke-linecap: butt;"/>
<polyline points="85.93,115.85 91.71,155.97 97.50,160.25 103.29,112.19 109.08,156.88 114.87,161.84 120.66,157.64 126.45,141.78 132.24,163.30 138.03,165.81 143.82,128.20 149.61,149.95 156.22,167.64 161.19,160.05 166.98,154.53 173.59,151.72 178.55,150.75 184.34,140.34 190.13,141.79 195.92,164.25 201.71,155.90 207.50,215.64 213.29,194.22 219.08,248.95 224.87,222.69 230.66,211.07 236.45,195.18 242.24,205.04 248.03,221.21 253.81,218.75 259.60,209.55 265.39,225.50 271.18,203.78 276.97,210.10 282.76,211.45 288.55,192.64 294.34,177.79 300.13,159.03 305.92,128.76 311.71,97.19 317.50,101.33 323.29,102.18 329.08,119.61 334.86,170.17 340.65,170.42 346.44,200.46 352.23,203.83 358.02,207.31 363.81,192.06 371.25,215.44 376.22,256.10 381.18,220.14 386.97,223.99 392.76,254.42 398.55,243.53 404.34,248.83 410.13,242.55 415.91,239.77 421.70,270.22 427.49,279.62 433.28,275.48 439.07,326.33 444.86,337.92 451.48,324.48 456.44,305.83 462.23,299.32 468.02,300.29 473.81,298.34 479.60,321.98 485.39,331.06 491.18,329.44 496.97,341.32 502.75,337.18 508.54,333.14 514.33,328.01 520.12,255.31 525.91,264.72 531.70,248.15 537.49,310.04 543.28,333.66 549.07,331.61 554.86,314.74 560.65,280.85 566.44,295.14 572.23,300.46 578.02,314.77 583.80,296.26 589.59,305.32 595.38,329.20 601.17,334.19 606.96,346.31 612.75,349.92 618.54,354.58 624.33,392.28 630.12,353.56 635.91,335.36 641.70,329.87 647.49,359.94 653.28,341.62 659.07,356.43 664.85,391.91 670.64,378.26 676.43,367.92 682.22,374.89 688.01,367.50 693.80,356.04 699.59,384.90 705.38,392.91 711.17,390.90 716.96,391.99 722.75,390.67 728.54,391.39 734.33,377.84 740.12,383.96 745.90,381.30 751.69,383.02 757.48,383.51 763.27,357.84 769.89,337.02 774.85,362.88 780.64,382.28 786.43,388.98 792.22,403.76 798.01,418.86 803.80,412.03 809.59,423.11 815.38,441.69 821.17,431.89 826.95,422.35 832.74,453.89 838.53,459.84 844.32,457.63 850.11,452.09 855.90,459.57 861.69,462.86 867.48,474.37 873.27,473.39 879.06,471.22 884.85,450.71 890.64,460.64 896.43,470.93 902.22,474.93 908.01,461.95 913.79,467.82 919.58,469.67 925.37,479.94 931.16,484.59 936.95,495.73 942.74,490.70 948.53,496.99 954.32,490.32 960.11,507.99 965.90,515.35 971.69,512.86 977.48,516.06 983.27,514.81 989.06,506.89 994.84,520.89 1000.63,524.05 1006.42,530.75 1012.21,526.49 1018.00,525.49 1023.79,527.94 1029.58,543.25 1035.37,537.79 1041.16,490.54" style="stroke-width: 1.71;stroke: #0000FF;stroke-linecap: butt;"/>
<polygon points="85.93,59.41 91.71,103.53 97.50,94.41 103.29,50.85 109.08,100.05 114.87,109.60 120.66,103.60 126.45,91.59 132.24,116.43 138.03,108.72 143.82,75.12 149.61,100.53 156.22,119.87 161.19,114.35 166.98,111.94 173.59,113.06 178.55,112.22 184.34,105.37 190.13,107.48 195.92,130.18 201.71,121.59 207.50,177.12 213.29,156.06 219.08,204.63 224.87,179.98 230.66,166.95 236.45,154.14 242.24,166.22 248.03,185.72 253.81,183.78 259.60,176.82 265.39,188.25 271.18,151.62 276.97,179.74 282.76,174.13 288.55,153.97 294.34,137.98 300.13,112.54 305.92,84.80 311.71,50.46 317.50,49.78 323.29,57.81 329.08,81.91 334.86,131.25 340.65,134.37 346.44,150.19 352.23,171.94 358.02,151.71 363.81,160.69 371.25,186.98 376.22,203.84 381.18,181.11 386.97,190.49 392.76,220.93 398.55,212.52 404.34,218.23 410.13,194.20 415.91,211.87 421.70,245.53 427.49,256.81 433.28,252.43 439.07,302.36 444.86,313.05 451.48,294.87 456.44,276.89 462.23,258.94 468.02,275.32 473.81,273.94 479.60,298.83 485.39,308.50 491.18,280.41 496.97,319.41 502.75,316.39 508.54,312.27 514.33,279.01 520.12,210.31 525.91,219.76 531.70,201.13 537.49,264.39 543.28,289.86 549.07,286.32 554.86,262.41 560.65,232.47 566.44,250.15 572.23,258.22 578.02,270.98 583.80,255.18 589.59,266.46 595.38,292.81 601.17,300.12 606.96,314.44 612.75,319.72 618.54,326.01 624.33,353.24 630.12,311.82 635.91,294.63 641.70,290.45 647.49,318.89 653.28,302.83 659.07,319.33 664.85,354.40 670.64,340.72 676.43,332.49 682.22,339.82 688.01,332.10 693.80,322.63 699.59,352.74 705.38,362.49 711.17,362.60 716.96,365.86 722.75,366.93 728.54,364.67 734.33,353.51 740.12,360.73 745.90,360.12 751.69,363.60 757.48,355.16 763.27,324.18 769.89,305.43 774.85,333.55 780.64,354.65 786.43,362.91 792.22,377.39 798.01,393.61 803.80,388.29 809.59,401.58 815.38,420.67 821.17,413.20 826.95,402.04 832.74,435.04 838.53,441.43 844.32,439.95 850.11,436.89 855.90,445.67 861.69,449.17 867.48,459.99 873.27,458.58 879.06,451.09 884.85,431.57 890.64,442.55 896.43,454.77 902.22,455.30 908.01,443.60 913.79,450.32 919.58,453.13 925.37,464.24 931.16,469.98 936.95,481.42 942.74,477.61 948.53,483.04 954.32,476.88 960.11,494.93 965.90,502.18 971.69,500.07 977.48,503.72 983.27,501.28 989.06,493.73 994.84,508.68 1000.63,511.98 1006.42,518.38 1012.21,514.38 1018.00,491.05 1023.79,516.61 1029.58,509.87 1035.37,513.14 1041.16,465.93 1041.16,514.99 1035.37,562.85 1029.58,578.63 1023.79,539.85 1018.00,562.98 1012.21,539.21 1006.42,543.78 1000.63,536.75 994.84,533.27 989.06,520.24 983.27,528.38 977.48,528.46 971.69,525.98 965.90,528.50 960.11,521.04 954.32,503.56 948.53,510.60 942.74,503.45 936.95,509.68 931.16,498.86 925.37,495.19 919.58,485.83 913.79,484.98 908.01,479.97 902.22,494.18 896.43,486.82 890.64,478.52 884.85,469.73 879.06,491.29 873.27,488.23 867.48,488.78 861.69,476.05 855.90,472.55 850.11,466.79 844.32,475.45 838.53,478.37 832.74,472.87 826.95,442.81 821.17,449.60 815.38,462.73 809.59,444.72 803.80,436.01 798.01,444.48 792.22,430.84 786.43,414.74 780.64,409.64 774.85,392.05 769.89,368.42 763.27,391.05 757.48,411.93 751.69,402.68 745.90,402.80 740.12,407.57 734.33,402.69 728.54,418.27 722.75,414.60 716.96,418.47 711.17,419.12 705.38,423.20 699.59,417.01 693.80,389.14 688.01,402.55 682.22,409.49 676.43,402.88 670.64,415.51 664.85,428.99 659.07,392.85 653.28,379.86 647.49,400.62 641.70,369.13 635.91,374.94 630.12,393.96 624.33,429.92 618.54,382.43 612.75,379.15 606.96,377.03 601.17,366.94 595.38,364.19 589.59,342.97 583.80,336.07 578.02,357.52 572.23,341.58 566.44,338.78 560.65,327.85 554.86,366.14 549.07,376.38 543.28,376.99 537.49,354.49 531.70,293.90 525.91,307.93 520.12,298.50 514.33,375.28 508.54,353.79 502.75,357.78 496.97,362.98 491.18,380.05 485.39,353.24 479.60,344.67 473.81,322.36 468.02,324.66 462.23,338.78 456.44,334.21 451.48,353.49 444.86,362.34 439.07,350.34 433.28,298.25 427.49,300.29 421.70,293.36 415.91,266.72 410.13,291.36 404.34,278.43 398.55,273.37 392.76,286.57 386.97,256.05 381.18,256.04 376.22,306.99 371.25,242.40 363.81,221.38 358.02,263.20 352.23,232.03 346.44,250.70 340.65,202.57 334.86,207.46 329.08,152.50 323.29,142.55 317.50,146.50 311.71,140.41 305.92,167.52 300.13,202.82 294.34,213.67 288.55,227.40 282.76,246.17 276.97,237.40 271.18,254.97 265.39,259.67 259.60,239.64 253.81,250.89 248.03,253.78 242.24,241.21 236.45,232.82 230.66,251.82 224.87,262.22 219.08,290.79 213.29,229.73 207.50,250.88 201.71,187.30 195.92,194.99 190.13,172.69 184.34,171.91 178.55,185.42 173.59,186.46 166.98,192.75 161.19,201.08 156.22,210.54 149.61,194.33 143.82,175.95 138.03,217.20 132.24,205.55 126.45,186.72 120.66,206.21 114.87,209.35 109.08,207.64 103.29,167.02 97.50,219.05 91.71,202.84 85.93,166.28" style="stroke-width: 0.00;stroke: none;stroke-linecap: butt;fill: #0000FF;fill-opacity: 0.30;" />
<polyline points="85.93,59.41 91.71,103.53 97.50,94.41 103.29,50.85 109.08,100.05 114.87,109.60 120.66,103.60 126.45,91.59 132.24,116.43 138.03,108.72 143.82,75.12 149.61,100.53 156.22,119.87 161.19,114.35 166.98,111.94 173.59,113.06 178.55,112.22 184.34,105.37 190.13,107.48 195.92,130.18 201.71,121.59 207.50,177.12 213.29,156.06 219.08,204.63 224.87,179.98 230.66,166.95 236.45,154.14 242.24,166.22 248.03,185.72 253.81,183.78 259.60,176.82 265.39,188.25 271.18,151.62 276.97,179.74 282.76,174.13 288.55,153.97 294.34,137.98 300.13,112.54 305.92,84.80 311.71,50.46 317.50,49.78 323.29,57.81 329.08,81.91 334.86,131.25 340.65,134.37 346.44,150.19 352.23,171.94 358.02,151.71 363.81,160.69 371.25,186.98 376.22,203.84 381.18,181.11 386.97,190.49 392.76,220.93 398.55,212.52 404.34,218.23 410.13,194.20 415.91,211.87 421.70,245.53 427.49,256.81 433.28,252.43 439.07,302.36 444.86,313.05 451.48,294.87 456.44,276.89 462.23,258.94 468.02,275.32 473.81,273.94 479.60,298.83 485.39,308.50 491.18,280.41 496.97,319.41 502.75,316.39 508.54,312.27 514.33,279.01 520.12,210.31 525.91,219.76 531.70,201.13 537.49,264.39 543.28,289.86 549.07,286.32 554.86,262.41 560.65,232.47 566.44,250.15 572.23,258.22 578.02,270.98 583.80,255.18 589.59,266.46 595.38,292.81 601.17,300.12 606.96,314.44 612.75,319.72 618.54,326.01 624.33,353.24 630.12,311.82 635.91,294.63 641.70,290.45 647.49,318.89 653.28,302.83 659.07,319.33 664.85,354.40 670.64,340.72 676.43,332.49 682.22,339.82 688.01,332.10 693.80,322.63 699.59,352.74 705.38,362.49 711.17,362.60 716.96,365.86 722.75,366.93 728.54,364.67 734.33,353.51 740.12,360.73 745.90,360.12 751.69,363.60 757.48,355.16 763.27,324.18 769.89,305.43 774.85,333.55 780.64,354.65 786.43,362.91 792.22,377.39 798.01,393.61 803.80,388.29 809.59,401.58 815.38,420.67 821.17,413.20 826.95,402.04 832.74,435.04 838.53,441.43 844.32,439.95 850.11,436.89 855.90,445.67 861.69,449.17 867.48,459.99 873.27,458.58 879.06,451.09 884.85,431.57 890.64,442.55 896.43,454.77 902.22,455.30 908.01,443.60 913.79,450.32 919.58,453.13 925.37,464.24 931.16,469.98 936.95,481.42 942.74,477.61 948.53,483.04 954.32,476.88 960.11,494.93 965.90,502.18 971.69,500.07 977.48,503.72 983.27,501.28 989.06,493.73 994.84,508.68 1000.63,511.98 1006.42,518.38 1012.21,514.38 1018.00,491.05 1023.79,516.61 1029.58,509.87 1035.37,513.14 1041.16,465.93" style="stroke-width: 1.07;stroke: none;stroke-linecap: butt;"/>
<polyline points="1041.16,514.99 1035.37,562.85 1029.58,578.63 1023.79,539.85 1018.00,562.98 1012.21,539.21 1006.42,543.78 1000.63,536.75 994.84,533.27 989.06,520.24 983.27,528.38 977.48,528.46 971.69,525.98 965.90,528.50 960.11,521.04 954.32,503.56 948.53,510.60 942.74,503.45 936.95,509.68 931.16,498.86 925.37,495.19 919.58,485.83 913.79,484.98 908.01,479.97 902.22,494.18 896.43,486.82 890.64,478.52 884.85,469.73 879.06,491.29 873.27,488.23 867.48,488.78 861.69,476.05 855.90,472.55 850.11,466.79 844.32,475.45 838.53,478.37 832.74,472.87 826.95,442.81 821.17,449.60 815.38,462.73 809.59,444.72 803.80,436.01 798.01,444.48 792.22,430.84 786.43,414.74 780.64,409.64 774.85,392.05 769.89,368.42 763.27,391.05 757.48,411.93 751.69,402.68 745.90,402.80 740.12,407.57 734.33,402.69 728.54,418.27 722.75,414.60 716.96,418.47 711.17,419.12 705.38,423.20 699.59,417.01 693.80,389.14 688.01,402.55 682.22,409.49 676.43,402.88 670.64,415.51 664.85,428.99 659.07,392.85 653.28,379.86 647.49,400.62 641.70,369.13 635.91,374.94 630.12,393.96 624.33,429.92 618.54,382.43 612.75,379.15 606.96,377.03 601.17,366.94 595.38,364.19 589.59,342.97 583.80,336.07 578.02,357.52 572.23,341.58 566.44,338.78 560.65,327.85 554.86,366.14 549.07,376.38 543.28,376.99 537.49,354.49 531.70,293.90 525.91,307.93 520.12,298.50 514.33,375.28 508.54,353.79 502.75,357.78 496.97,362.98 491.18,380.05 485.39,353.24 479.60,344.67 473.81,322.36 468.02,324.66 462.23,338.78 456.44,334.21 451.48,353.49 444.86,362.34 439.07,350.34 433.28,298.25 427.49,300.29 421.70,293.36 415.91,266.72 410.13,291.36 404.34,278.43 398.55,273.37 392.76,286.57 386.97,256.05 381.18,256.04 376.22,306.99 371.25,242.40 363.81,221.38 358.02,263.20 352.23,232.03 346.44,250.70 340.65,202.57 334.86,207.46 329.08,152.50 323.29,142.55 317.50,146.50 311.71,140.41 305.92,167.52 300.13,202.82 294.34,213.67 288.55,227.40 282.76,246.17 276.97,237.40 271.18,254.97 265.39,259.67 259.60,239.64 253.81,250.89 248.03,253.78 242.24,241.21 236.45,232.82 230.66,251.82 224.87,262.22 219.08,290.79 213.29,229.73 207.50,250.88 201.71,187.30 195.92,194.99 190.13,172.69 184.34,171.91 178.55,185.42 173.59,186.46 166.98,192.75 161.19,201.08 156.22,210.54 149.61,194.33 143.82,175.95 138.03,217.20 132.24,205.55 126.45,186.72 120.66,206.21 114.87,209.35 109.08,207.64 103.29,167.02 97.50,219.05 91.71,202.84 85.93,166.28" style="stroke-width: 1.07;stroke: none;stroke-linecap: butt;"/>
</g><g clip-path="url(#c2)">
<g><text x="33.23" y="606.23" text-anchor="end" style="font-family: Arial;font-size: 8.80px;fill: #4D4D4D;" textLength="9.79px" lengthAdjust="spacingAndGlyphs">40</text></g>
<g><text x="33.23" y="545.20" text-anchor="end" style="font-family: Arial;font-size: 8.80px;fill: #4D4D4D;" textLength="9.79px" lengthAdjust="spacingAndGlyphs">60</text></g>
<g><text x="33.23" y="484.17" text-anchor="end" style="font-family: Arial;font-size: 8.80px;fill: #4D4D4D;" textLength="9.79px" lengthAdjust="spacingAndGlyphs">80</text></g>
<g><text x="33.23" y="423.15" text-anchor="end" style="font-family: Arial;font-size: 8.80px;fill: #4D4D4D;" textLength="14.69px" lengthAdjust="spacingAndGlyphs">100</text></g>
<g><text x="33.23" y="362.12" text-anchor="end" style="font-family: Arial;font-size: 8.80px;fill: #4D4D4D;" textLength="14.69px" lengthAdjust="spacingAndGlyphs">120</text></g>
<g><text x="33.23" y="301.09" text-anchor="end" style="font-family: Arial;font-size: 8.80px;fill: #4D4D4D;" textLength="14.69px" lengthAdjust="spacingAndGlyphs">140</text></g>
<g><text x="33.23" y="240.06" text-anchor="end" style="font-family: Arial;font-size: 8.80px;fill: #4D4D4D;" textLength="14.69px" lengthAdjust="spacingAndGlyphs">160</text></g>
<g><text x="33.23" y="179.04" text-anchor="end" style="font-family: Arial;font-size: 8.80px;fill: #4D4D4D;" textLength="14.69px" lengthAdjust="spacingAndGlyphs">180</text></g>
<g><text x="33.23" y="118.01" text-anchor="end" style="font-family: Arial;font-size: 8.80px;fill: #4D4D4D;" textLength="14.69px" lengthAdjust="spacingAndGlyphs">200</text></g>
<g><text x="33.23" y="56.98" text-anchor="end" style="font-family: Arial;font-size: 8.80px;fill: #4D4D4D;" textLength="14.69px" lengthAdjust="spacingAndGlyphs">220</text></g>
<g><text x="73.52" y="616.31" text-anchor="middle" style="font-family: Arial;font-size: 8.80px;fill: #4D4D4D;" textLength="19.58px" lengthAdjust="spacingAndGlyphs">2023</text></g>
<g><text x="375.39" y="616.31" text-anchor="middle" style="font-family: Arial;font-size: 8.80px;fill: #4D4D4D;" textLength="19.58px" lengthAdjust="spacingAndGlyphs">2024</text></g>
<g><text x="678.09" y="616.31" text-anchor="middle" style="font-family: Arial;font-size: 8.80px;fill: #4D4D4D;" textLength="19.58px" lengthAdjust="spacingAndGlyphs">2025</text></g>
<g><text x="979.96" y="616.31" text-anchor="middle" style="font-family: Arial;font-size: 8.80px;fill: #4D4D4D;" textLength="19.58px" lengthAdjust="spacingAndGlyphs">2026</text></g>
<g><text transform="translate(13.37,314.20) rotate(-90.00)" text-anchor="middle" style="font-family: Arial;font-size: 11.00px;" textLength="59.31px" lengthAdjust="spacingAndGlyphs">Basis points</text></g>
<line x1="505.53" y1="656.40" x2="519.36" y2="656.40" style="stroke-width: 1.71;stroke-linecap: butt;"/>
<line x1="558.22" y1="656.40" x2="572.05" y2="656.40" style="stroke-width: 1.71;stroke: #0000FF;stroke-linecap: butt;"/>
<g><text x="526.57" y="659.55" style="font-family: Arial;font-size: 8.80px;" textLength="24.45px" lengthAdjust="spacingAndGlyphs">Actual</text></g>
<g><text x="579.26" y="659.55" style="font-family: Arial;font-size: 8.80px;" textLength="44.02px" lengthAdjust="spacingAndGlyphs">Forecasted</text></g>
<g><text x="38.16" y="14.94" style="font-family: Arial;font-size: 13.20px;" textLength="173.04px" lengthAdjust="spacingAndGlyphs">Spread: Actual vs Forecasted</text></g>
</g>
</svg>